<?xml version="1.0" standalone="no"?>
<!DOCTYPE svg PUBLIC "-//W3C//DTD SVG 20010904//EN"
 "http://www.w3.org/TR/2001/REC-SVG-20010904/DTD/svg10.dtd">
<svg version="1.0" xmlns="http://www.w3.org/2000/svg"
 width="900.000000pt" height="900.000000pt" viewBox="0 0 900.000000 900.000000"
 preserveAspectRatio="xMidYMid meet">

<g transform="translate(0.000000,900.000000) scale(0.100000,-0.100000)"
fill="#000000" stroke="none">
<path d="M3685 7776 c-13 -67 -17 -85 -25 -121 -36 -158 50 -326 190 -370 30
-10 59 -21 65 -26 5 -5 17 -9 27 -9 10 0 21 -6 24 -13 15 -41 -87 -307 -115
-300 -6 2 -15 -6 -21 -17 -6 -11 -17 -20 -24 -20 -15 0 -70 -133 -81 -195 -7
-42 -27 -74 -87 -144 -43 -49 -82 -121 -93 -169 -6 -27 -17 -36 -80 -66 -91
-43 -182 -130 -248 -240 -26 -43 -47 -82 -47 -86 0 -4 -11 -41 -24 -81 -13
-41 -27 -105 -30 -143 -3 -38 -12 -76 -18 -84 -13 -16 -75 -59 -176 -123 -31
-20 -70 -55 -85 -77 -19 -29 -36 -42 -51 -42 -12 0 -26 -3 -30 -7 -4 -4 -19
-9 -34 -11 -38 -4 -158 -61 -178 -83 -9 -11 -23 -19 -31 -19 -29 0 -134 -124
-174 -205 -22 -44 -44 -84 -49 -89 -6 -6 -10 -22 -10 -37 0 -39 -10 -59 -29
-59 -27 -1 -101 -38 -138 -70 -48 -43 -66 -39 -115 28 -85 114 -109 157 -119
205 -12 65 -24 357 -15 357 5 0 20 -7 34 -14 15 -8 47 -24 72 -36 25 -11 70
-33 100 -50 103 -55 94 -60 347 196 235 237 271 280 274 329 5 67 -33 165
-104 269 -57 83 -130 149 -232 211 -44 26 -92 57 -106 67 -34 25 -124 34 -166
17 -28 -12 -137 -108 -438 -384 -49 -45 -108 -97 -130 -116 -169 -144 -223
-217 -267 -359 -22 -73 -23 -87 -23 -460 l0 -385 28 -75 c23 -62 28 -90 28
-165 0 -49 -5 -106 -11 -125 -22 -75 -1 -301 35 -369 19 -36 93 -105 135 -126
144 -71 176 -88 180 -95 3 -4 18 -10 34 -14 43 -10 29 -15 -57 -17 -42 -2 -77
-4 -77 -6 0 -8 94 -43 116 -43 28 0 32 -16 7 -24 -25 -7 49 1 126 14 88 15
151 49 181 99 38 62 45 57 31 -18 -12 -63 -5 -74 27 -44 27 25 27 27 27 151 0
70 -4 150 -9 177 l-9 50 24 -21 c41 -37 207 -115 274 -128 22 -5 26 -4 15 4
-13 8 -13 10 2 10 9 0 40 -5 68 -11 50 -11 60 -29 14 -29 -32 0 -161 -129
-193 -195 -23 -47 -23 -49 -6 -81 21 -39 12 -58 -22 -49 -15 3 -22 2 -18 -4 3
-6 -7 -14 -22 -17 -15 -4 -53 -25 -85 -47 -46 -31 -67 -40 -96 -38 -64 3 -77
6 -85 19 -4 6 -13 12 -20 12 -6 0 -21 10 -32 23 -11 13 -29 29 -40 35 l-20 11
20 1 c25 0 120 44 130 60 4 6 -15 0 -42 -14 -26 -14 -65 -28 -85 -31 -21 -4
-38 -11 -38 -15 0 -4 18 -19 40 -34 38 -25 52 -46 30 -46 -5 0 -10 -6 -10 -13
0 -7 -13 -21 -30 -30 -16 -10 -42 -30 -57 -45 -15 -15 -50 -45 -77 -66 -45
-37 -47 -40 -27 -47 25 -10 54 0 111 36 53 33 63 26 16 -11 -91 -73 -148 -87
-240 -59 -71 22 -129 65 -157 117 -10 18 -9 20 7 15 116 -36 236 -48 249 -26
4 5 -17 9 -47 9 -80 1 -238 83 -258 135 -5 13 -14 26 -20 30 -12 7 -49 77 -61
115 -5 14 -7 -53 -6 -155 2 -202 9 -224 84 -296 39 -38 35 -36 263 -91 96 -22
223 -19 321 8 30 9 79 22 109 30 30 8 71 22 91 30 33 14 39 14 60 1 52 -33
175 -57 292 -57 127 1 244 28 397 94 155 67 189 89 274 174 l82 83 37 -54 c45
-65 109 -118 224 -186 82 -49 92 -58 158 -153 39 -55 84 -118 102 -139 17 -22
35 -49 39 -62 4 -12 17 -34 29 -49 13 -15 25 -48 29 -75 4 -26 9 -60 12 -75
l6 -28 309 0 310 0 29 33 c17 20 46 39 72 46 44 13 196 94 303 162 34 21 76
42 95 45 19 4 71 22 116 40 144 57 235 55 439 -11 190 -63 306 -144 334 -235
20 -64 37 -80 83 -80 21 0 38 3 38 8 0 4 -11 30 -25 57 -13 28 -24 59 -25 70
0 18 25 92 67 200 9 22 16 64 17 92 0 42 -4 57 -22 73 -26 24 -29 75 -8 106 8
12 20 43 27 70 7 27 13 51 15 52 1 2 17 -3 36 -11 128 -58 160 -70 227 -87 51
-14 107 -20 175 -20 86 0 113 5 186 31 47 16 99 35 116 40 26 10 47 6 145 -27
104 -35 123 -38 224 -38 104 0 115 2 205 37 100 40 155 60 205 74 23 6 31 16
35 38 3 17 22 65 43 109 20 43 37 82 37 85 0 4 18 55 40 113 62 165 72 308 33
501 -23 119 -14 270 21 371 25 71 28 90 24 168 -5 74 -11 99 -43 165 -81 171
-118 282 -125 381 -4 59 -11 96 -19 102 -9 5 -10 10 -2 14 16 11 14 203 -3
257 -8 24 -17 55 -20 69 -8 37 -85 135 -131 166 -22 14 -60 44 -85 66 -25 22
-65 56 -89 76 -24 20 -67 58 -96 84 -28 26 -66 58 -83 70 -46 34 -229 194
-290 255 -40 40 -61 53 -83 53 -41 0 -231 -95 -307 -153 -91 -70 -176 -174
-222 -272 -34 -71 -40 -95 -40 -149 0 -36 4 -76 10 -90 9 -26 156 -175 367
-375 125 -118 154 -140 188 -141 20 0 153 81 208 127 16 12 33 23 39 23 6 0 9
-58 6 -167 l-3 -168 -38 -65 c-20 -36 -49 -85 -63 -110 -14 -25 -33 -53 -42
-63 -14 -16 -17 -16 -46 7 -17 13 -54 34 -81 46 -52 24 -231 69 -275 70 -21 0
-30 12 -57 68 -18 37 -51 87 -73 112 -22 25 -40 48 -40 51 0 16 -201 139 -226
139 -20 0 -144 60 -144 69 0 6 9 12 20 16 31 10 63 70 53 101 -5 15 -5 59 0
103 8 60 17 87 43 126 60 92 72 130 68 211 -5 87 -29 149 -85 216 -41 48 -41
49 -30 93 15 61 14 145 -4 194 -15 44 -16 38 25 166 19 60 31 258 21 365 -10
115 -65 390 -87 431 -7 15 -24 55 -37 91 -14 35 -36 87 -51 116 -25 50 -28 52
-66 52 l-40 0 49 -97 c72 -145 79 -165 116 -334 68 -313 30 -552 -113 -716
-42 -48 -132 -56 -235 -22 -79 26 -82 30 -103 92 -9 29 -24 57 -32 63 -13 9
-11 14 12 30 60 42 122 99 145 133 14 20 27 38 30 41 11 9 46 65 58 90 22 50
67 197 80 265 16 85 17 237 2 302 -35 151 -34 148 -64 151 -26 3 -27 2 -21
-25 50 -208 48 -356 -10 -530 -37 -109 -78 -179 -148 -245 -33 -32 -63 -58
-67 -58 -4 0 -3 14 2 32 15 52 12 169 -5 238 -23 92 -65 177 -90 184 -11 3
-22 4 -24 2 -1 -2 -5 -35 -9 -72 -3 -38 -11 -78 -17 -89 -7 -11 -21 -46 -31
-79 -22 -66 -55 -96 -105 -96 -40 0 -97 26 -116 54 -40 58 -64 98 -64 109 0 7
-14 24 -32 39 -40 33 -34 39 57 57 56 11 70 19 114 63 60 60 79 98 87 176 7
61 -11 188 -27 198 -18 11 -8 24 19 24 60 0 -1 16 -74 19 -61 2 -80 -1 -95
-15 -18 -16 -19 -16 -13 -1 5 14 -1 17 -38 17 -39 0 -48 -5 -89 -47 -54 -58
-86 -122 -105 -210 -7 -36 -16 -68 -18 -71 -3 -3 -16 3 -30 11 -14 9 -43 20
-66 23 -43 7 -177 -13 -186 -28 -3 -4 -21 -8 -40 -8 -19 0 -33 4 -29 9 9 15
-15 24 -30 11 -8 -6 -19 -9 -25 -5 -5 3 -10 2 -10 -3 0 -5 -41 -10 -92 -11
-104 -2 -108 0 -108 70 0 77 -27 146 -77 200 -59 63 -96 67 -119 14 -7 -19
-14 -44 -14 -55 0 -11 -5 -20 -11 -20 -8 0 -10 18 -6 61 l7 60 -90 -2 c-83 -1
-91 -3 -95 -23z m160 -131 c-6 -97 -5 -111 16 -163 12 -31 38 -75 56 -96 30
-36 40 -56 29 -56 -11 0 -142 72 -159 87 -62 57 -79 204 -29 257 11 11 32 33
46 49 44 47 49 38 41 -78z m1007 83 c-7 -7 -12 -8 -12 -2 0 14 12 26 19 19 2
-3 -1 -11 -7 -17z m205 -49 c29 -82 29 -114 -2 -175 -42 -84 -68 -104 -129
-102 -45 2 -52 11 -29 37 22 26 43 95 43 144 0 63 21 126 48 148 14 11 30 18
36 16 6 -2 21 -32 33 -68z m-153 26 c-15 -22 -31 -36 -21 -17 2 4 7 15 10 25
4 9 11 17 17 17 6 0 3 -11 -6 -25z m-73 -18 c-10 -9 -11 -8 -5 6 3 10 9 15 12
12 3 -3 0 -11 -7 -18z m-8 -32 c-3 -9 -8 -14 -10 -11 -3 3 -2 9 2 15 9 16 15
13 8 -4z m-265 -182 c-10 -2 -28 -2 -40 0 -13 2 -5 4 17 4 22 1 32 -1 23 -4z
m-84 -22 c3 -5 -8 -11 -25 -13 -32 -5 -51 8 -22 15 30 8 42 7 47 -2z m96 -20
c0 -10 3 -12 8 -5 11 16 47 23 67 12 18 -10 14 -14 -42 -44 -16 -8 -92 27 -93
43 0 13 28 22 48 15 6 -2 12 -12 12 -21z m-525 -46 c14 -23 26 -59 27 -81 3
-53 -12 -141 -21 -125 -5 7 -5 31 -1 54 13 70 2 122 -36 173 -13 17 -24 34
-24 39 0 15 31 -19 55 -60z m298 5 c32 -28 87 -50 87 -34 0 4 -7 16 -17 26 -9
10 -14 20 -12 23 3 2 32 -3 64 -11 109 -27 147 -34 159 -27 22 14 63 10 107
-11 39 -18 49 -31 84 -102 22 -45 40 -85 40 -90 0 -27 48 -80 108 -121 79 -54
84 -59 57 -68 -12 -4 -17 -11 -13 -18 4 -7 8 -16 8 -22 0 -5 24 -19 53 -31 62
-25 74 -34 41 -34 -22 0 -33 5 -88 38 -22 13 -22 13 -6 -12 11 -17 13 -26 6
-26 -7 0 -9 -5 -5 -11 4 -8 0 -9 -15 -4 -19 6 -20 4 -10 -18 10 -23 65 -43
169 -63 62 -12 70 -15 68 -22 -1 -4 8 -26 20 -49 12 -23 22 -49 22 -57 0 -8
16 -42 35 -74 35 -60 103 -125 160 -155 56 -28 179 -48 257 -41 68 6 76 10
111 46 47 49 48 31 3 -67 -47 -102 -63 -110 -202 -109 -102 0 -114 3 -179 33
-38 18 -83 39 -100 47 -44 21 -82 57 -78 74 4 12 3 13 -5 1 -7 -9 -19 -11 -36
-7 -33 8 -36 -16 -4 -42 58 -47 82 -71 70 -72 -34 0 -163 -126 -191 -185 -11
-25 -21 -58 -21 -74 0 -17 -4 -32 -8 -35 -5 -3 -14 45 -22 107 -7 62 -15 116
-17 120 -3 5 -11 -4 -19 -18 -10 -20 -14 -70 -15 -179 0 -83 -4 -160 -8 -171
-7 -17 -11 -13 -29 27 -11 26 -24 68 -27 93 -8 53 -21 58 -31 13 l-7 -33 -17
40 c-9 22 -23 64 -30 93 -8 29 -21 58 -29 65 -11 9 -13 9 -8 0 14 -22 67 -212
66 -235 0 -19 -2 -18 -12 9 -7 17 -15 35 -19 39 -5 4 -8 15 -8 24 0 10 -11 33
-24 52 -26 39 -78 176 -71 188 2 4 -5 16 -17 26 -20 19 -21 19 -14 -3 5 -14 3
-23 -3 -23 -6 0 -11 14 -11 30 0 20 -5 30 -15 30 -9 0 -12 6 -8 17 6 14 3 14
-20 -3 -15 -11 -27 -30 -28 -44 -5 -76 1 -178 14 -237 8 -38 15 -76 14 -86 0
-20 -22 -18 -22 2 0 7 -39 34 -86 59 -209 113 -301 193 -372 322 -10 18 -20
30 -23 27 -14 -14 59 -120 137 -199 48 -49 90 -88 94 -88 4 0 27 -13 50 -29
24 -16 63 -38 87 -49 53 -24 144 -108 154 -142 6 -23 5 -23 -25 8 -18 18 -37
32 -41 32 -5 0 -24 13 -42 28 -18 16 -53 41 -78 56 -25 15 -54 32 -65 39 -11
7 -24 18 -28 25 -4 6 -15 12 -22 12 -8 0 -15 7 -15 15 0 14 -12 20 -33 16 -5
-1 -6 2 -3 7 2 4 -24 34 -60 66 -73 65 -134 170 -134 230 0 19 -5 47 -12 61
-6 14 -8 28 -5 32 11 10 15 1 30 -58 9 -35 16 -47 19 -34 2 11 1 31 -3 45 -4
14 -13 45 -20 70 -7 25 -17 48 -23 52 -11 7 -26 107 -19 126 10 26 22 10 33
-45 17 -83 32 -101 24 -30 -4 39 -2 62 6 72 13 16 6 93 -10 109 -5 5 -10 25
-10 44 0 18 -4 31 -9 27 -14 -8 -24 58 -17 102 4 21 9 58 12 83 3 25 10 49 15
55 5 5 9 19 9 31 0 38 30 95 77 145 37 39 44 53 39 74 -7 26 -63 63 -75 48
-33 -38 -81 -116 -81 -131 0 -10 -6 -27 -14 -38 -13 -17 -14 -16 -6 19 4 20 5
39 1 42 -4 2 -8 26 -10 54 -1 39 3 55 20 75 20 23 28 25 110 25 84 0 91 -1
122 -29z m-487 -35 c10 -8 15 -14 9 -14 -5 0 -19 6 -29 14 -11 8 -15 15 -10
15 6 0 19 -7 30 -15z m149 -18 c11 -9 17 -18 13 -22 -8 -9 -68 32 -68 46 0 10
20 1 55 -24z m255 -12 c12 -14 8 -22 -28 -58 l-42 -42 0 42 c0 58 18 95 40 83
9 -5 23 -16 30 -25z m1059 -201 c1 -34 -2 -96 -6 -138 -5 -70 -8 -79 -30 -87
-26 -10 -122 -2 -144 11 -15 10 9 66 46 106 13 14 46 78 72 141 l48 116 7 -44
c3 -24 7 -71 7 -105z m-1251 -261 c-3 -84 -12 -110 -29 -80 -9 16 -49 25 -49
11 0 -4 14 -22 30 -41 26 -30 30 -31 30 -13 0 18 2 19 13 8 10 -10 13 -43 11
-128 -5 -221 -12 -285 -41 -415 -8 -38 -18 -88 -23 -110 -12 -63 -44 -116
-103 -172 -50 -48 -52 -52 -30 -56 12 -2 23 -1 23 3 0 4 6 10 13 13 11 4 12
-3 7 -36 -9 -48 -5 -64 21 -72 11 -4 17 -11 14 -16 -4 -5 1 -9 9 -9 25 0 26
-15 6 -56 -25 -48 -25 -52 0 -23 22 27 25 22 10 -15 -5 -14 -16 -67 -25 -118
-20 -113 -33 -137 -72 -131 -62 11 -172 47 -252 84 -47 22 -89 38 -95 36 -6
-2 -17 2 -24 10 -7 7 -22 13 -32 13 -10 0 -22 5 -25 10 -3 6 -15 10 -26 10
-11 0 -22 7 -25 15 -4 8 -10 12 -15 10 -4 -3 -17 3 -28 14 -11 11 -35 27 -53
36 -31 14 -32 14 -10 -1 31 -23 28 -38 -4 -18 -14 10 -40 24 -57 33 -30 15
-32 20 -35 76 -6 104 35 244 102 348 50 77 158 167 203 167 36 0 99 -50 201
-159 74 -79 68 -57 -53 167 -27 50 -28 158 -2 176 9 7 17 18 17 25 0 6 7 14
15 17 8 3 17 14 20 25 11 35 30 20 63 -49 19 -42 55 -92 92 -131 33 -35 60
-61 60 -58 0 11 -54 113 -71 135 -26 34 -74 281 -49 256 6 -6 13 -33 16 -60 6
-55 29 -141 44 -164 14 -21 12 -9 -5 39 -8 23 -17 75 -21 116 -4 41 -11 75
-17 75 -14 0 -3 70 21 123 12 28 27 47 37 47 14 0 15 -9 9 -62 -7 -66 0 -78
11 -18 3 19 10 39 15 45 6 7 5 16 -2 23 -9 9 -8 12 4 12 9 0 19 9 23 19 7 22
42 34 49 17 2 -6 3 -1 3 11 -1 12 14 52 33 89 l35 66 8 -43 c4 -24 7 -81 5
-126z m-58 117 c0 -5 -5 -10 -11 -10 -5 0 -7 5 -4 10 3 6 8 10 11 10 2 0 4 -4
4 -10z m-49 -63 c-10 -9 -11 -8 -5 6 3 10 9 15 12 12 3 -3 0 -11 -7 -18z
m1379 -7 c0 -5 -5 -10 -11 -10 -5 0 -7 5 -4 10 3 6 8 10 11 10 2 0 4 -4 4 -10z
m-275 -50 c3 -5 1 -10 -4 -10 -6 0 -11 5 -11 10 0 6 2 10 4 10 3 0 8 -4 11
-10z m205 -110 c0 -5 -2 -10 -4 -10 -3 0 -8 5 -11 10 -3 6 -1 10 4 10 6 0 11
-4 11 -10z m27 -80 c31 -62 107 -120 212 -165 55 -23 64 -24 146 -14 48 5 104
18 125 29 54 28 60 26 60 -19 0 -32 -6 -44 -37 -71 -36 -32 -38 -33 -112 -27
-206 17 -353 103 -401 236 -13 34 -27 64 -31 67 -12 7 -11 26 1 22 5 -1 22
-28 37 -58z m1410 -197 c28 -41 42 -78 35 -91 -4 -5 -25 -14 -47 -18 -60 -11
-104 -31 -162 -75 -29 -21 -56 -39 -61 -39 -5 0 -27 -16 -50 -36 -64 -55 -50
-27 25 48 37 38 63 68 57 68 -13 0 -102 -92 -129 -133 -22 -35 -12 -47 18 -21
12 11 31 26 42 34 19 14 19 14 5 -5 -8 -11 -29 -36 -46 -56 -17 -20 -34 -42
-36 -50 -3 -8 -9 -11 -13 -7 -5 5 -3 20 4 35 9 19 9 29 2 31 -19 6 -12 19 45
87 93 110 56 92 -68 -32 -43 -44 -50 -33 -13 21 14 20 25 40 25 44 0 27 117
111 245 175 22 11 51 26 65 33 34 18 36 18 57 -13z m-4437 -132 c155 -108 217
-165 208 -190 -1 -5 -50 8 -108 30 -58 23 -125 48 -150 56 -25 9 -70 27 -101
39 -31 13 -62 24 -69 24 -24 0 -3 26 50 61 l54 36 41 -16 c22 -9 56 -27 75
-40z m4577 -18 l33 -36 -28 -13 c-15 -7 -45 -20 -66 -28 -48 -20 -157 -110
-182 -151 -10 -16 -27 -37 -39 -47 -23 -19 -15 -34 12 -23 10 5 21 8 25 7 4
-1 40 31 80 72 40 40 96 85 123 101 28 16 53 33 57 39 4 6 8 7 8 2 0 -5 6 -4
13 2 7 6 19 10 27 9 19 -3 140 -88 140 -99 0 -7 -25 -11 -33 -5 -2 1 -10 -3
-18 -10 -8 -6 -37 -15 -64 -18 -51 -7 -74 -22 -67 -43 2 -6 -2 -12 -10 -12
-53 0 -185 -116 -218 -192 -11 -26 -22 -48 -24 -48 -2 0 -2 24 0 53 2 28 3 56
4 60 0 5 4 6 8 3 4 -2 8 4 8 15 0 17 -5 15 -28 -13 l-27 -33 9 40 c5 22 8 41
6 42 -2 2 -20 -9 -41 -23 -22 -14 -50 -28 -64 -30 -25 -4 -25 -4 -7 11 11 8
23 15 28 15 4 0 8 13 8 30 0 16 16 59 35 96 35 66 44 107 25 119 -5 3 -10 -1
-10 -10 0 -30 -38 -124 -65 -159 -15 -20 -36 -36 -46 -36 -20 0 -41 36 -45 75
-5 52 93 168 185 217 64 35 66 22 4 -22 -82 -57 -153 -121 -168 -149 -10 -20
2 -12 44 28 32 31 77 67 100 81 23 14 65 40 92 58 44 29 107 58 134 61 5 0 24
-16 42 -36z m-4679 -119 c52 -24 99 -44 106 -44 7 0 26 -24 41 -52 16 -29 37
-68 47 -86 10 -18 18 -38 18 -45 0 -19 -65 -91 -77 -84 -5 3 -24 35 -43 72
-18 36 -36 65 -40 65 -3 0 -34 24 -68 53 -67 58 -78 65 -170 97 -34 13 -61 27
-59 33 2 6 19 19 38 29 47 25 92 17 207 -38z m3729 41 c20 -14 43 -69 43 -101
0 -16 -40 -25 -62 -13 -10 5 -18 19 -18 29 0 22 -16 27 -23 8 -3 -7 -6 -1 -6
15 -1 28 -14 36 -27 16 -3 -6 -2 -14 3 -18 5 -3 5 -27 0 -58 -9 -56 -23 -66
-95 -68 -23 -1 -40 -9 -51 -24 l-17 -22 -31 28 c-16 15 -42 48 -56 73 -14 25
-37 56 -51 69 -19 18 -23 27 -14 33 25 15 70 8 103 -18 19 -14 38 -24 42 -21
4 3 26 8 48 11 22 4 69 22 105 41 76 39 79 40 107 20z m-624 -24 c-82 -59
-132 -155 -140 -267 -5 -68 -13 -88 -27 -65 -11 17 14 166 29 177 8 6 15 17
15 23 0 32 120 161 149 161 8 0 -4 -13 -26 -29z m153 14 c12 -8 25 -11 29 -7
5 4 5 2 2 -4 -4 -6 5 -22 19 -35 34 -31 88 -132 104 -191 12 -47 34 -70 23
-25 -3 12 -3 19 2 15 4 -4 18 -3 30 2 41 16 138 21 146 8 4 -7 10 4 14 25 5
27 16 41 40 56 21 12 35 16 37 9 3 -8 11 -7 27 1 20 11 22 11 19 -6 -2 -13
-14 -19 -41 -21 -60 -5 -72 -33 -72 -169 0 -110 -1 -114 -22 -119 -28 -7 -19
-26 9 -22 16 2 23 -6 35 -40 8 -24 13 -45 11 -47 -2 -2 -36 -6 -75 -9 l-72 -5
2 49 c2 46 16 72 18 33 0 -14 2 -15 6 -3 3 8 12 20 20 27 12 9 3 11 -41 8 -31
-2 -55 -5 -54 -8 2 -2 -3 -11 -11 -21 -8 -9 -11 -19 -8 -23 4 -3 9 2 13 11 10
26 31 18 38 -15 11 -55 11 -55 -64 -55 -38 0 -70 3 -70 8 0 4 -19 -2 -42 -12
-61 -28 -161 -27 -208 1 -86 51 -125 111 -139 211 -12 87 -3 139 39 232 52
116 171 187 236 141z m300 -12 c-10 -11 -104 -31 -111 -25 -3 3 -5 11 -5 19 0
9 17 13 62 13 34 0 58 -3 54 -7z m-3802 -65 c22 -6 46 -15 52 -20 6 -4 42 -25
80 -45 86 -45 200 -150 138 -126 -12 4 -15 2 -12 -8 3 -8 14 -14 26 -13 16 0
26 -11 42 -47 24 -57 27 -87 6 -70 -15 13 -26 -4 -26 -40 0 -31 -13 -22 -73
50 -32 39 -76 84 -100 100 -97 70 -147 101 -189 117 -64 25 -74 37 -54 65 13
19 51 47 65 49 2 0 22 -5 45 -12z m468 -30 c13 -13 14 -18 4 -18 -7 0 -19 7
-26 15 -7 8 -17 15 -22 15 -14 0 24 -46 58 -70 34 -22 52 -60 29 -60 -7 0 -32
26 -56 58 -24 31 -50 65 -58 75 -13 16 -12 17 19 11 18 -4 41 -15 52 -26z
m3449 -1 c-10 -9 -11 -8 -5 6 3 10 9 15 12 12 3 -3 0 -11 -7 -18z m499 19 c0
-3 -4 -8 -10 -11 -5 -3 -10 -1 -10 4 0 6 5 11 10 11 6 0 10 -2 10 -4z m791
-46 c28 -27 54 -50 58 -50 3 0 25 -17 48 -38 22 -20 72 -62 109 -92 99 -80
112 -96 136 -169 17 -53 22 -94 23 -211 3 -230 27 -346 96 -479 42 -82 119
-317 119 -366 0 -16 -7 -55 -16 -85 -12 -45 -37 -285 -45 -440 -2 -32 -2 -32
-8 10 -3 25 -3 72 1 105 18 147 5 396 -22 415 -11 7 -29 156 -23 180 8 30 25
24 23 -7 -1 -16 -2 -55 -1 -89 1 -47 4 -61 16 -61 31 0 10 158 -36 274 -14 36
-25 50 -35 46 -9 -3 -14 2 -14 13 0 11 -5 26 -11 34 -10 15 -8 -6 11 -95 48
-228 65 -437 65 -797 0 -179 3 -324 8 -321 16 10 -7 -64 -25 -77 -7 -5 -35
-30 -148 -127 -21 -18 -42 -33 -47 -33 -6 0 -16 -7 -23 -15 -21 -26 20 -18 65
12 39 26 40 26 20 2 -12 -13 -27 -33 -35 -43 -14 -18 -13 -18 10 -11 45 13
-37 -62 -104 -95 -65 -33 -140 -41 -130 -15 4 9 0 15 -10 15 -9 0 -16 5 -16
10 0 6 -3 9 -7 9 -29 -5 -21 5 12 16 22 7 39 18 37 24 -1 6 6 15 15 19 10 4
-34 9 -97 12 -86 4 -110 8 -94 15 23 11 94 71 94 80 0 2 -35 2 -77 -1 l-78 -6
25 21 25 20 -37 -2 c-23 -1 -38 -7 -38 -14 0 -7 -5 -13 -11 -13 -5 0 -7 -5 -4
-10 4 -6 2 -9 -2 -8 -5 2 -22 -10 -37 -27 -17 -18 -26 -23 -22 -12 6 20 2 21
-25 7 -12 -7 -19 -7 -19 -1 0 5 10 13 23 16 12 4 31 15 42 25 11 10 27 20 35
22 8 3 -5 9 -30 13 -30 5 -45 4 -48 -4 -4 -13 -62 -15 -62 -3 0 5 14 28 30 50
33 46 23 54 -25 22 -53 -35 -177 -21 -188 21 -4 16 1 20 33 25 33 5 37 8 25
20 -7 8 -23 14 -34 14 -25 0 -27 9 -4 25 15 11 15 13 -5 19 -17 6 -21 13 -16
30 4 18 -3 26 -38 46 -42 23 -61 43 -85 87 -12 23 -11 23 50 23 64 0 155 33
173 62 14 21 94 81 101 75 3 -4 14 4 25 16 18 20 19 20 12 2 -4 -11 -10 -49
-14 -85 -4 -36 -13 -78 -19 -93 -13 -33 -5 -97 16 -144 16 -35 28 -42 36 -20
2 8 16 3 44 -16 22 -15 57 -32 77 -38 20 -5 36 -14 36 -20 0 -6 4 -8 9 -4 5 3
12 1 16 -5 7 -11 134 -12 180 0 27 6 28 8 10 14 -11 4 -27 11 -36 16 -9 5 -34
12 -55 15 -57 10 -188 53 -210 70 -17 13 -16 13 16 5 19 -5 44 -14 55 -19 31
-14 197 -32 209 -22 6 5 28 7 48 5 21 -2 40 1 44 7 10 17 -25 58 -57 66 -44
12 -40 27 9 34 23 3 48 11 54 17 7 7 18 12 25 12 22 0 138 98 172 145 28 39
30 48 32 140 2 76 -1 99 -12 105 -25 14 -13 80 14 80 7 0 6 -4 -3 -10 -10 -6
-11 -10 -2 -10 6 0 12 -9 12 -20 0 -11 3 -20 8 -20 12 0 1 93 -13 107 -11 10
-14 10 -18 0 -3 -6 -6 9 -6 36 -1 31 3 47 12 47 6 0 4 5 -5 11 -10 5 -18 18
-18 27 0 15 2 15 10 2 8 -12 10 -11 10 8 0 12 -4 22 -10 22 -5 0 -7 8 -4 18 5
14 4 14 -4 2 -5 -8 -12 -85 -16 -170 -3 -85 -11 -173 -16 -195 -6 -22 -12 -44
-13 -50 -1 -5 -7 -16 -11 -24 -5 -8 -11 -37 -13 -65 -4 -56 -21 -89 -54 -107
-21 -11 -22 -10 -15 21 6 31 5 32 -11 18 -18 -14 -66 -35 -129 -55 -37 -12
-207 9 -232 29 -31 24 -53 52 -58 75 -8 32 3 99 21 126 7 12 21 45 30 72 9 28
28 79 42 115 23 59 37 172 44 368 1 12 5 22 11 22 5 0 6 15 2 35 -8 45 4 45
52 -4 38 -37 92 -71 114 -71 6 0 27 -12 46 -26 19 -15 34 -24 34 -21 0 3 -43
52 -96 109 -53 57 -102 112 -109 123 -18 28 -29 78 -15 70 15 -9 12 6 -4 24
-32 35 -77 144 -81 193 -4 47 -3 49 11 29 8 -11 21 -21 28 -21 16 0 56 -80 56
-112 0 -14 10 -33 21 -44 22 -19 22 -19 10 3 -16 31 -14 41 4 17 19 -25 19 -4
0 32 -21 40 -19 61 6 67 18 5 19 9 9 27 -6 12 -10 24 -8 26 4 3 62 8 166 13 6
1 12 5 12 10 0 5 14 23 30 39 17 17 30 36 30 43 0 6 -9 0 -21 -15 -11 -14 -26
-26 -34 -26 -7 0 -18 -7 -25 -15 -14 -16 -40 -20 -40 -6 0 5 11 12 24 15 13 3
26 12 29 19 4 11 -4 12 -41 5 -50 -9 -103 -1 -69 11 15 6 11 11 -23 34 -23 15
-45 27 -50 27 -4 0 -10 7 -14 15 -5 13 -2 14 17 3 26 -14 100 -22 133 -14 39
10 30 36 -12 36 -41 0 -74 15 -74 34 0 8 24 30 53 50 54 37 110 108 70 88 -10
-5 -43 -20 -73 -35 -89 -42 -157 -45 -145 -7 5 14 -1 20 -27 25 -37 8 -102 41
-132 68 -23 19 -32 21 -41 7 -3 -5 -11 -10 -17 -10 -6 0 -1 11 12 25 12 13 26
23 29 21 14 -9 37 22 53 69 9 27 15 51 14 53 -2 2 -14 -15 -27 -38 -18 -31
-28 -40 -42 -36 -11 3 -26 -2 -34 -10 -8 -8 -27 -14 -43 -14 -36 0 -167 -108
-174 -143 -15 -73 -16 -114 -2 -126 15 -13 96 -5 96 10 0 5 -7 6 -15 3 -37
-15 -9 15 51 55 62 40 67 42 83 26 13 -14 13 -18 2 -22 -7 -3 -52 -41 -100
-84 -47 -43 -93 -79 -101 -79 -9 0 -32 13 -52 30 -49 40 -55 87 -28 206 24
103 60 164 154 262 48 49 72 66 112 78 29 8 76 32 105 54 30 21 57 39 61 39 5
1 31 -21 59 -49z m-4690 -27 c13 -16 12 -17 -3 -4 -10 7 -18 15 -18 17 0 8 8
3 21 -13z m-586 -63 c115 -66 144 -84 159 -100 77 -77 126 -132 126 -143 0 -8
9 -22 19 -31 10 -10 22 -34 26 -54 4 -20 11 -43 17 -49 6 -7 8 -26 6 -42 -3
-21 -1 -28 9 -24 25 10 -29 -69 -61 -88 -40 -24 -72 -24 -140 1 -106 40 -94
70 24 60 84 -7 107 0 120 36 11 29 13 71 4 61 -4 -4 -15 3 -25 14 -10 12 -25
19 -32 16 -8 -3 -36 12 -62 34 -26 21 -56 40 -66 40 -10 1 -25 2 -31 2 -46 3
-84 -21 -169 -104 -99 -96 -107 -100 -182 -74 -59 20 -143 23 -159 6 -11 -11
-8 -13 18 -8 31 6 82 -3 137 -25 40 -16 19 -34 -51 -43 -99 -12 -104 -18 -39
-50 51 -24 117 -85 117 -107 0 -5 -46 -8 -102 -8 l-101 0 -36 -38 c-20 -21
-44 -62 -54 -91 -23 -65 -16 -78 8 -16 21 56 73 94 137 102 40 4 42 3 24 -11
-19 -15 -19 -16 9 -16 31 0 25 -14 -10 -24 -11 -3 -6 -3 10 0 17 3 37 5 45 6
27 0 143 -37 147 -47 5 -15 -95 -11 -139 5 -34 12 -44 12 -100 -7 -35 -11 -75
-24 -90 -27 -15 -3 -29 -14 -32 -24 -17 -54 -28 -253 -15 -273 11 -18 11 -20
15 91 2 52 5 106 7 120 3 14 5 31 6 38 1 14 122 72 152 72 11 0 27 -7 35 -15
9 -8 33 -18 55 -21 45 -8 49 -17 13 -40 -14 -10 -23 -23 -20 -31 3 -8 2 -11
-4 -8 -5 3 -15 -5 -21 -17 -16 -30 -30 -113 -16 -99 5 5 11 20 12 33 4 38 5
39 15 33 5 -3 15 5 22 19 11 26 28 35 28 16 0 -25 18 -6 29 31 9 31 19 43 42
51 19 7 28 15 25 24 -3 8 1 14 8 14 18 0 27 -48 11 -58 -7 -4 -17 -18 -24 -32
-12 -24 -11 -24 11 3 13 15 27 27 31 27 15 0 6 -23 -20 -49 -29 -28 -66 -87
-67 -108 -1 -16 -42 -67 -93 -117 -54 -53 -125 -159 -111 -167 5 -3 9 -10 8
-15 -1 -5 3 -10 8 -12 5 -1 19 24 31 57 12 32 29 65 38 72 16 13 16 12 0 -11
-9 -13 -17 -29 -17 -35 0 -5 19 16 41 48 23 32 43 56 46 53 2 -2 -9 -23 -26
-46 -33 -46 -33 -78 0 -57 11 7 22 19 24 28 6 19 45 56 45 43 0 -5 -7 -20 -16
-32 -8 -12 -13 -30 -11 -40 3 -12 8 -8 17 16 7 18 14 31 17 29 2 -3 -3 -22
-11 -42 -14 -33 -14 -36 -1 -25 8 7 15 18 15 25 0 11 41 45 55 45 3 0 5 -7 5
-15 0 -8 -4 -15 -10 -15 -5 0 -10 -4 -10 -10 0 -5 7 -10 15 -10 10 0 15 10 15
28 0 16 3 22 8 15 4 -7 2 -55 -4 -107 -10 -75 -20 -111 -49 -168 -21 -40 -41
-78 -47 -85 -6 -7 -5 -14 2 -18 10 -6 41 25 68 69 12 20 12 20 7 -4 -3 -14 -7
-41 -8 -61 -1 -20 -9 -44 -16 -53 -29 -34 12 -16 52 24 22 22 42 39 44 36 3
-2 -9 -31 -26 -63 -28 -52 -40 -103 -26 -103 4 0 19 7 35 15 40 21 38 9 -7
-37 -24 -25 -32 -38 -22 -38 9 0 24 9 34 20 15 17 19 17 32 5 8 -8 11 -19 8
-25 -3 -5 -2 -10 4 -10 5 0 13 5 17 12 11 17 26 -30 18 -55 -5 -14 -3 -18 7
-14 8 3 22 8 32 12 12 5 17 2 17 -12 0 -46 -55 -89 -182 -141 -138 -57 -253
-39 -312 49 -13 19 -26 51 -29 71 -3 21 -13 48 -22 60 l-17 23 7 -22 c3 -13 4
-23 1 -23 -3 0 -10 18 -16 40 -9 33 -8 44 6 65 11 18 14 35 9 57 -4 18 -8 66
-10 107 -2 41 -6 84 -9 97 -4 13 -1 24 6 26 9 3 5 15 -12 41 -13 19 -27 34
-31 32 -3 -2 -6 1 -6 8 -1 7 -13 47 -27 90 -28 84 -31 133 -15 242 6 39 12 97
15 130 2 33 9 74 14 90 9 30 8 52 -8 138 -12 63 -9 91 23 217 42 169 57 191
234 357 86 81 164 155 174 165 27 28 65 22 142 -22z m4845 -109 c-22 -32 -30
-38 -30 -22 0 12 41 63 47 57 3 -3 -5 -19 -17 -35z m-1754 -13 c14 -28 15 -31
2 -20 -14 11 -31 52 -22 52 2 0 11 -15 20 -32z m-828 -25 c105 -68 334 -280
396 -368 52 -73 98 -163 90 -176 -3 -6 15 -50 40 -99 47 -92 57 -121 34 -102
-7 6 -15 10 -18 9 -3 -1 -18 8 -34 21 -16 12 -23 22 -16 22 17 0 -5 27 -34 42
-21 11 -21 11 -2 -11 11 -12 14 -21 7 -21 -6 0 3 -13 21 -30 l33 -29 -25 -1
c-14 0 -57 9 -95 21 -177 53 -226 61 -335 56 -58 -3 -116 -8 -130 -12 -14 -4
-83 -9 -155 -12 -97 -4 -127 -2 -119 6 6 6 34 14 62 18 71 8 100 29 137 97 18
33 40 61 50 62 23 3 106 -22 185 -56 36 -16 83 -34 105 -41 22 -6 49 -15 60
-20 11 -4 40 -13 65 -20 25 -6 58 -20 74 -32 25 -18 29 -18 23 -4 -4 10 -2 17
5 17 6 0 -1 9 -15 20 -34 27 -49 25 -17 -1 l25 -21 -25 14 c-14 9 -25 21 -25
28 0 7 -22 29 -50 48 -27 19 -49 39 -47 44 1 5 -6 7 -16 4 -19 -6 -102 55
-102 76 0 5 -14 24 -32 41 -46 46 -104 140 -124 200 -9 29 -21 57 -26 64 -8
10 -8 163 0 163 1 0 15 -8 30 -17z m-2078 -183 c24 -15 7 -19 -20 -5 -15 8
-19 14 -10 14 8 1 22 -3 30 -9z m1252 -82 c16 -11 32 -17 37 -14 10 7 105 -44
97 -51 -3 -3 -21 2 -40 11 -19 9 -41 16 -49 16 -15 0 -117 59 -117 67 0 8 45
-10 72 -29z m-1332 -27 c0 -22 -29 -36 -43 -22 -5 5 -7 21 -3 35 6 23 9 25 26
16 11 -6 20 -19 20 -29z m1185 -27 l7 -52 -74 -6 c-40 -4 -86 -10 -103 -13
-26 -5 -28 -4 -17 9 7 9 31 28 55 44 23 16 57 41 76 57 18 16 37 25 41 20 4
-4 11 -31 15 -59z m1752 -26 c-12 -119 -43 -180 -154 -294 -18 -18 -33 -38
-33 -44 0 -36 -35 29 -76 143 -5 12 -2 16 9 12 10 -4 17 2 21 18 7 31 45 78
59 76 34 -6 66 22 84 71 18 49 47 77 82 79 11 1 13 -12 8 -61z m420 28 c-10
-8 -17 -18 -16 -23 2 -4 -25 -26 -59 -49 -66 -43 -91 -64 -55 -45 12 6 34 16
50 22 l28 10 -24 -25 c-23 -24 -68 -42 -133 -53 -32 -5 -86 21 -95 45 -4 9
-13 23 -20 30 -16 17 -17 36 -1 26 8 -5 9 -2 5 9 -4 10 -10 23 -13 31 -4 10
10 13 68 14 41 0 78 2 83 3 6 1 36 -1 68 -5 36 -5 62 -5 70 2 10 8 33 16 57
21 3 0 -3 -6 -13 -13z m-1813 -31 c20 -8 36 -17 36 -20 0 -5 -90 22 -98 29
-11 11 26 6 62 -9z m41 -45 c3 -5 1 -10 -4 -10 -6 0 -11 5 -11 10 0 6 2 10 4
10 3 0 8 -4 11 -10z m3666 -7 c13 -16 12 -17 -3 -4 -10 7 -18 15 -18 17 0 8 8
3 21 -13z m-1346 -43 c234 -71 389 -205 397 -343 4 -52 -17 -60 -27 -10 -3 20
-15 48 -26 61 -22 29 -26 17 -4 -12 17 -22 20 -61 5 -51 -6 4 -11 -8 -11 -27
-1 -27 -3 -28 -6 -8 -2 14 -12 41 -21 60 l-17 35 -5 -64 c-3 -37 -10 -66 -17
-68 -7 -3 -15 -20 -19 -39 -4 -21 -10 -31 -17 -27 -6 4 -21 8 -34 9 -18 2 -23
-2 -23 -22 0 -31 -19 -22 -21 9 -1 14 -4 9 -9 -13 l-7 -35 -12 32 c-14 35 -33
37 -24 3 8 -30 -10 -24 -31 11 -19 33 -35 34 -17 1 14 -26 14 -42 1 -42 -6 0
-15 12 -21 26 -5 15 -12 24 -15 21 -3 -3 5 -25 17 -49 12 -23 26 -61 29 -83 4
-22 17 -83 29 -135 16 -73 21 -124 20 -230 l-2 -135 -8 100 c-10 112 -24 206
-41 279 -11 42 -27 63 -123 160 -110 112 -174 169 -252 227 -24 17 -43 34 -43
39 0 5 -21 28 -46 53 -46 44 -47 45 -39 92 5 39 15 57 48 90 52 52 99 84 146
102 45 17 162 9 246 -17z m-2050 -51 c49 -12 61 -17 39 -18 -39 -1 -125 24
-186 55 -27 14 -48 26 -48 28 0 2 28 -8 63 -22 34 -14 94 -33 132 -43z m295
46 c27 -13 51 -29 55 -35 10 -16 -8 -11 -35 10 -14 11 -30 20 -36 20 -12 0
-53 29 -41 30 4 0 30 -11 57 -25z m-266 -14 c38 -10 65 -21 60 -24 -12 -7
-156 31 -169 44 -7 9 -3 10 15 5 14 -4 56 -15 94 -25z m-544 8 c78 -18 195
-84 251 -144 69 -73 80 -97 87 -180 5 -63 6 -67 14 -35 4 19 5 54 2 78 -7 45
1 56 15 20 8 -21 14 -22 169 -26 131 -2 180 1 267 17 58 12 128 21 155 21 58
0 238 -41 337 -77 75 -26 85 -40 55 -75 -11 -14 -7 -28 8 -28 3 0 16 9 29 21
21 20 23 20 42 3 11 -10 25 -28 32 -40 32 -60 92 -172 105 -199 8 -16 20 -36
26 -44 5 -7 11 -18 13 -25 2 -6 16 -49 32 -96 50 -149 68 -418 32 -489 -22
-42 -60 -81 -48 -48 4 10 3 16 -2 12 -5 -3 -12 -1 -15 4 -3 5 -40 -14 -82 -42
-42 -29 -81 -55 -87 -58 -7 -3 -27 -13 -44 -22 -46 -23 -50 -5 -5 27 20 14 30
26 23 26 -8 0 -22 -6 -30 -14 -31 -26 -147 -84 -201 -100 l-55 -16 30 22 c17
12 48 40 70 62 35 35 38 41 21 44 -24 5 -126 -17 -144 -31 -8 -7 -18 -5 -30 7
-22 19 -39 21 -23 3 6 -8 9 -16 6 -19 -6 -6 -215 -1 -305 7 -92 9 -129 15
-175 27 -22 6 -53 12 -68 14 -15 2 -36 8 -46 13 -30 16 -105 40 -110 36 -2 -3
1 -5 8 -5 6 0 16 -10 21 -22 5 -13 9 -17 9 -10 1 17 21 15 21 -3 0 -9 6 -12
15 -9 8 4 25 0 38 -8 12 -8 46 -21 75 -27 28 -7 52 -18 52 -24 0 -6 3 -7 7 -4
3 4 12 2 20 -4 8 -7 13 -8 13 -1 0 6 13 7 37 2 20 -5 41 -7 45 -4 4 3 8 1 8
-4 0 -10 50 -9 160 3 36 3 83 2 105 -3 22 -5 52 -5 68 -1 41 11 33 -8 -10 -22
-25 -8 -95 -13 -198 -13 -180 0 -243 12 -372 70 -41 19 -81 34 -89 34 -41 0
-131 121 -139 187 -1 16 -8 27 -13 26 -6 -2 -28 5 -49 13 -37 16 -38 16 -21
-3 17 -19 17 -19 -15 -15 -17 3 -44 13 -59 23 -14 11 -33 17 -41 13 -9 -3 -27
11 -48 38 -19 23 -42 50 -51 60 -9 9 -24 31 -33 47 -14 28 -14 34 0 60 8 16
36 46 63 67 38 30 48 45 50 71 2 18 4 47 5 63 1 17 5 30 9 30 8 0 60 99 78
146 14 36 -4 29 -21 -8 -10 -24 -20 -32 -34 -30 -14 2 -16 0 -7 -6 7 -5 10
-16 6 -26 -5 -14 -9 -14 -22 -4 -11 10 -62 13 -196 11 -100 -1 -190 2 -201 7
-22 9 35 12 265 13 78 0 122 3 105 7 -16 4 -67 8 -112 9 -48 0 -83 5 -83 11 0
6 -7 10 -16 10 -8 0 -13 -4 -10 -9 3 -5 -11 -4 -32 1 -20 5 -71 13 -112 18
-128 13 -310 72 -310 101 0 39 36 129 74 184 22 33 46 67 51 76 6 9 26 37 45
63 19 26 44 62 55 79 16 27 17 30 2 18 -10 -8 -17 -9 -17 -3 0 23 33 41 87 47
32 4 63 8 68 10 24 8 254 4 295 -6z m773 -19 c23 -1 64 -26 56 -34 -3 -3 -24
2 -48 10 -23 8 -46 12 -51 9 -10 -6 -7 15 5 35 8 13 10 13 13 -2 2 -11 13 -18
25 -18z m-1248 -40 c-18 -35 -19 -44 -3 -34 7 4 8 3 4 -5 -4 -6 -11 -9 -16 -6
-5 3 -20 -11 -33 -32 -14 -21 -38 -52 -56 -70 -17 -18 -28 -39 -25 -46 3 -8
-2 -19 -9 -26 -8 -6 -28 -52 -43 -102 l-29 -90 -30 6 c-73 15 -75 19 -50 90 8
22 15 54 15 70 l0 30 -16 -32 c-9 -18 -26 -43 -38 -56 -11 -12 -27 -35 -33
-50 -14 -30 -40 -39 -28 -9 11 25 24 96 19 101 -2 3 -11 -4 -18 -15 -44 -61
-46 -62 -39 -24 8 50 63 146 93 164 14 8 36 25 50 38 41 37 102 75 150 91 65
22 112 35 133 36 16 1 16 -1 2 -29z m1390 0 c3 -6 -1 -7 -9 -4 -18 7 -21 14
-7 14 6 0 13 -4 16 -10z m815 -27 c0 -5 -21 -17 -48 -27 -26 -11 -63 -29 -82
-41 -19 -12 -48 -25 -65 -29 -26 -7 -24 -3 22 33 28 23 66 48 85 56 35 15 88
20 88 8z m-645 -51 c-6 -7 -35 18 -35 31 0 5 9 2 20 -8 11 -10 18 -20 15 -23z
m451 -11 c-15 -15 -16 -13 -4 19 9 26 13 30 16 16 2 -10 -3 -26 -12 -35z m249
39 l27 -10 -52 -35 c-29 -19 -54 -35 -56 -35 -2 0 -24 -20 -48 -45 -26 -26
-39 -45 -31 -45 8 0 15 4 15 8 0 5 20 23 45 40 41 29 52 32 118 31 90 0 228
-38 352 -95 55 -25 212 -163 296 -261 133 -152 162 -202 179 -307 20 -127 10
-376 -19 -448 -15 -39 -68 -70 -106 -63 -16 4 -41 7 -55 9 -14 1 -36 9 -50 16
-41 22 -88 21 -96 -2 -4 -14 -12 -18 -26 -14 -16 4 -18 2 -9 -7 18 -18 13 -32
-6 -15 -20 17 -83 32 -83 19 0 -9 -102 8 -110 19 -7 9 -47 30 -57 30 -4 0 1
-8 12 -16 19 -16 19 -16 -5 -9 -14 4 -31 15 -39 26 -7 10 -22 19 -31 19 -26 0
-51 11 -45 19 2 4 -10 6 -28 4 -23 -2 -27 -1 -14 5 17 7 16 9 -7 20 -22 10
-26 9 -26 -3 0 -8 -4 -15 -9 -15 -14 0 -23 31 -28 95 -2 33 -10 93 -18 134 -8
40 -15 86 -15 101 0 16 -4 31 -9 34 -5 4 -12 30 -16 59 -8 68 -24 107 -40 101
-8 -3 -12 4 -12 20 0 29 13 35 20 9 3 -12 5 -9 6 8 1 24 -14 49 -31 49 -4 0
-5 -8 -2 -17 4 -13 0 -11 -15 6 -12 13 -21 28 -21 35 0 6 -9 17 -20 24 -19 12
-70 100 -70 122 0 6 30 40 67 77 66 65 67 66 25 42 -24 -13 -61 -42 -83 -63
-22 -21 -41 -37 -43 -35 -2 2 -15 25 -29 50 l-26 46 24 35 c13 20 36 39 50 42
31 8 121 71 128 91 3 7 -22 -4 -56 -26 -61 -38 -87 -47 -87 -30 0 5 -9 7 -20
4 -40 -10 -11 39 30 52 14 4 63 27 110 50 47 23 92 45 100 48 8 3 16 6 17 6 1
1 14 -4 28 -9z m-651 -45 c16 -12 17 -15 4 -15 -8 0 -21 7 -28 15 -16 19 -1
19 24 0z m-2644 -35 c0 -5 -10 -10 -22 -10 -19 0 -20 2 -8 10 19 13 30 13 30
0z m39 -9 c7 -5 12 -14 9 -21 -2 -7 -10 -4 -22 9 -19 21 -12 28 13 12z m4338
-203 c-2 -13 -4 -3 -4 22 0 25 2 35 4 23 2 -13 2 -33 0 -45z m1422 -28 c0 -9
-4 -8 -9 5 -5 11 -9 27 -9 35 0 9 4 8 9 -5 5 -11 9 -27 9 -35z m-1083 11 c5
-5 36 -16 69 -26 57 -17 145 -60 145 -71 0 -3 -9 -2 -21 1 -18 6 -17 2 10 -36
17 -23 46 -53 65 -65 34 -23 54 -54 35 -54 -5 0 -19 9 -31 20 -12 11 -26 20
-31 20 -14 0 32 -58 52 -65 28 -9 44 -58 45 -139 1 -135 -75 -234 -212 -276
-35 -11 -87 -20 -114 -20 -51 0 -169 26 -178 39 -3 4 -27 23 -55 41 -104 71
-162 147 -211 278 -28 73 -30 97 -9 89 9 -4 28 11 52 39 21 25 54 65 74 87 20
23 44 57 53 74 25 51 77 72 172 73 44 0 84 -4 90 -9z m-359 -33 c-3 -8 -6 -5
-6 6 -1 11 2 17 5 13 3 -3 4 -12 1 -19z m1471 -33 c-3 -3 -9 2 -12 12 -6 14
-5 15 5 6 7 -7 10 -15 7 -18z m-5068 -50 c35 -7 66 -18 68 -24 10 -31 90 -135
152 -197 38 -39 70 -78 70 -86 0 -26 -77 -130 -142 -194 -35 -34 -94 -78 -133
-98 -77 -41 -100 -58 -66 -49 15 4 21 1 19 -8 -5 -24 -117 -59 -183 -57 l-60
1 45 7 c70 12 101 20 122 31 30 16 18 18 -37 6 -69 -16 -153 -13 -214 8 -54
18 -94 62 -127 141 -17 41 -7 169 16 199 4 6 11 21 15 35 4 14 28 52 53 85 39
50 34 63 -5 15 -11 -13 -12 -12 -13 5 -1 38 -68 -55 -92 -127 -12 -38 -26 -68
-30 -68 -9 0 -1 44 12 70 5 8 8 19 8 23 2 24 62 129 101 175 70 84 153 119
286 120 39 1 99 -5 135 -13z m280 -31 c35 -8 93 -15 128 -17 35 -1 66 -5 69
-10 3 -5 -29 -8 -75 -6 -44 2 -78 1 -75 -3 2 -5 1 -8 -4 -8 -16 0 -117 42
-137 57 -21 15 -21 15 4 8 14 -3 54 -13 90 -21z m-1127 -12 c-3 -12 -9 -19
-14 -16 -5 3 -4 14 2 25 13 26 20 21 12 -9z m1612 -137 c-14 -21 -25 -32 -25
-26 0 14 42 73 47 67 2 -2 -7 -21 -22 -41z m5 -55 c-6 -11 -13 -20 -16 -20 -2
0 0 9 6 20 6 11 13 20 16 20 2 0 0 -9 -6 -20z m-1994 -103 c-3 -12 0 -27 6
-34 7 -9 7 -17 -2 -28 -7 -8 -9 -23 -5 -32 4 -10 7 -42 8 -71 1 -29 8 -56 14
-60 10 -6 10 -17 2 -46 -19 -68 -27 -30 -36 178 -4 100 -3 127 6 121 7 -4 10
-17 7 -28z m415 -14 c-12 -20 -14 -14 -5 12 4 9 9 14 11 11 3 -2 0 -13 -6 -23z
m1126 0 c-8 -16 -19 -39 -25 -53 -18 -46 -94 -130 -151 -169 -81 -54 -92 -58
-43 -14 92 81 148 144 182 202 34 60 65 88 37 34z m3994 -30 c-12 -20 -14 -14
-5 12 4 9 9 14 11 11 3 -2 0 -13 -6 -23z m-4841 -39 c0 -39 29 -131 45 -144 8
-7 15 -17 15 -23 0 -16 -25 12 -49 55 -24 44 -39 138 -22 138 6 0 11 -12 11
-26z m-711 -161 c16 -123 29 -166 68 -230 43 -72 35 -82 -10 -12 -44 70 -55
104 -73 218 -17 111 -17 111 -5 111 5 0 14 -39 20 -87z m3716 -3 c3 -5 1 -10
-4 -10 -6 0 -11 5 -11 10 0 6 2 10 4 10 3 0 8 -4 11 -10z m-1645 -97 c0 -11
-63 35 -77 56 -12 19 -5 16 31 -13 25 -21 46 -40 46 -43z m-10 47 c0 -5 -2
-10 -4 -10 -3 0 -8 5 -11 10 -3 6 -1 10 4 10 6 0 11 -4 11 -10z m85 -58 c-4
-5 -75 37 -75 44 0 3 18 -5 40 -17 22 -12 38 -25 35 -27z m4075 40 c0 -5 -7
-17 -15 -28 -14 -18 -14 -17 -4 9 12 27 19 34 19 19z m-2400 -112 c0 -5 -5
-10 -11 -10 -5 0 -7 5 -4 10 3 6 8 10 11 10 2 0 4 -4 4 -10z m1112 -56 c106
-66 134 -117 99 -183 -17 -34 -18 -40 -5 -45 32 -12 41 -7 36 20 -5 25 -3 26
24 20 l29 -6 -24 20 c-33 28 -21 34 41 20 92 -22 99 -28 103 -98 4 -52 1 -63
-14 -72 -10 -5 -22 -6 -26 -2 -5 4 -5 2 -1 -5 8 -14 -10 -27 -19 -13 -9 15
-25 12 -25 -4 0 -17 -13 -26 -43 -32 -12 -2 -34 -6 -49 -10 -18 -4 -28 -2 -28
5 0 6 -4 11 -10 11 -6 0 -9 -5 -8 -12 3 -12 -31 -25 -69 -27 -17 -1 -20 3 -16
22 4 20 3 21 -10 5 -8 -10 -17 -15 -21 -11 -4 4 -12 1 -17 -7 -9 -12 -10 -12
-5 3 5 15 -2 17 -44 17 -28 0 -50 5 -50 10 0 6 -5 10 -10 10 -10 0 -22 8 -55
38 -13 11 -15 11 -15 -2 0 -9 -4 -16 -10 -16 -5 0 -10 9 -10 20 0 11 -6 20
-12 20 -9 0 -9 3 -2 8 6 4 10 24 10 44 0 27 -3 35 -12 27 -8 -7 -10 -2 -6 16
2 14 9 25 14 25 5 0 6 4 3 10 -3 5 3 19 13 31 11 11 18 28 15 38 -2 10 1 24 9
32 7 8 21 24 31 36 19 21 19 22 -4 16 -23 -6 -23 -6 -7 18 9 13 23 23 31 21 9
-1 19 3 23 9 11 19 98 3 146 -27z m-602 -37 c0 -14 -33 -4 -38 12 -3 9 0 11 8
6 10 -6 12 -3 7 11 -7 18 -7 18 8 0 8 -11 15 -24 15 -29z m-495 -7 c17 -7 59
-20 95 -30 36 -9 98 -27 138 -39 53 -16 108 -22 195 -25 93 -2 130 -7 157 -20
44 -23 80 -56 80 -73 0 -16 29 -75 40 -83 12 -9 32 -51 26 -57 -3 -3 -10 5
-15 18 -7 17 -10 19 -10 7 -1 -10 -6 -18 -12 -18 -8 0 -8 -5 1 -15 7 -8 9 -15
4 -15 -5 0 -19 15 -31 33 -13 17 -23 26 -23 19 0 -20 -17 -14 -47 16 -15 15
-30 27 -33 27 -3 0 -17 9 -32 19 -15 10 -32 15 -37 12 -6 -4 -15 3 -22 15 -8
16 -13 18 -19 9 -5 -9 -9 -9 -14 -1 -4 6 -22 11 -39 11 -29 -1 -30 -2 -14 -14
13 -10 15 -15 5 -18 -8 -3 0 -12 20 -22 34 -17 44 -30 15 -19 -10 4 -14 2 -10
-4 8 -13 -39 0 -86 23 -15 7 -35 10 -43 7 -14 -5 -12 -8 7 -20 l24 -14 -25 7
c-14 4 -38 8 -53 9 -15 1 -33 7 -39 13 -7 7 -21 11 -32 11 -17 -1 -18 -2 -3
-6 37 -10 14 -23 -40 -24 -32 -1 -61 -1 -65 0 -4 0 -27 -3 -52 -8 -31 -6 -49
-5 -55 3 -5 6 -12 56 -16 111 -8 109 -13 147 -22 155 -3 3 -3 -61 1 -142 l6
-147 -33 -5 c-17 -3 -59 -10 -91 -16 -33 -5 -61 -8 -63 -6 -3 2 -19 0 -36 -6
-18 -5 -68 -14 -112 -18 -44 -4 -109 -11 -145 -15 -36 -4 -62 -5 -59 -1 8 8
172 35 224 37 22 0 49 4 60 9 12 6 -6 7 -50 2 -94 -9 -222 -9 -231 1 -4 4 2
17 14 30 34 36 27 49 -14 25 -24 -14 -33 -25 -29 -37 3 -8 3 -12 -1 -8 -4 4
-16 0 -26 -10 -10 -9 -18 -13 -18 -8 0 4 -7 2 -15 -5 -8 -7 -13 -16 -10 -20 2
-4 -5 -16 -18 -26 l-22 -19 19 23 c36 42 0 22 -47 -27 -27 -27 -61 -53 -77
-56 -16 -3 -34 -12 -40 -20 -12 -15 -118 -41 -127 -31 -4 3 -12 1 -20 -5 -7
-6 -13 -8 -13 -3 0 5 -40 10 -90 10 -106 2 -144 9 -133 27 5 9 4 9 -8 0 -11
-9 -25 -4 -68 25 -30 20 -56 44 -59 54 -4 16 -15 22 -34 19 -5 0 -8 4 -8 10 0
5 -5 7 -11 4 -20 -13 124 -129 171 -138 23 -4 22 -4 -4 -6 -43 -2 -109 34
-155 84 -73 79 -59 89 149 104 80 6 161 13 180 16 62 8 170 37 176 46 3 5 16
9 29 9 13 0 26 4 29 9 10 16 137 40 266 50 119 10 225 36 275 67 11 6 35 15
53 19 17 4 32 10 32 15 0 4 8 10 18 14 9 3 41 19 70 35 28 16 52 28 52 26 0
-2 -4 -15 -10 -29 -14 -38 -6 -32 35 25 33 47 38 50 53 36 9 -9 31 -21 47 -27z
m1755 -4 c0 -8 12 -24 26 -35 15 -12 21 -21 15 -21 -15 0 -61 45 -61 60 0 5 5
10 10 10 6 0 10 -6 10 -14z m-5011 -12 c-41 -50 -148 -96 -216 -93 -20 1 -13
5 25 14 57 14 156 60 173 82 7 7 16 13 21 13 6 0 5 -7 -3 -16z m434 -1 c-7 -2
-21 -2 -30 0 -10 3 -4 5 12 5 17 0 24 -2 18 -5z m2117 -23 c0 -5 -7 -10 -16
-10 -8 0 -12 5 -9 10 3 6 10 10 16 10 5 0 9 -4 9 -10z m2440 -21 c0 -6 -4 -7
-10 -4 -5 3 -10 11 -10 16 0 6 5 7 10 4 6 -3 10 -11 10 -16z m-3983 -26 c17
-18 36 -33 41 -33 10 0 23 -30 27 -63 1 -10 7 -23 13 -29 6 -6 8 -24 5 -39 -3
-19 -1 -29 6 -29 8 0 7 -7 -3 -22 -20 -28 -21 -48 -1 -22 14 18 14 18 15 -8 0
-15 -12 -41 -27 -59 -21 -25 -23 -31 -10 -26 28 11 10 -11 -24 -28 -32 -17
-39 -10 -11 11 33 25 -5 14 -49 -15 -36 -23 -59 -30 -126 -35 -45 -3 -84 -2
-87 2 -3 5 -33 10 -66 11 -103 3 -216 56 -253 118 -14 24 -16 37 -8 51 14 26
107 92 129 92 15 -1 15 -2 1 -13 -35 -27 8 -50 52 -27 30 16 23 0 -13 -31 -24
-20 -28 -28 -16 -29 50 -1 93 66 82 126 -7 38 15 74 45 74 22 1 71 39 51 40
-10 1 -8 4 5 9 11 5 58 8 105 8 83 -1 86 -2 117 -34z m4031 -16 c8 -6 21 -12
30 -13 10 -1 49 -14 87 -28 51 -19 62 -26 42 -26 -52 0 -138 31 -170 62 -29
27 -21 30 11 5z m-1538 -198 c73 -12 102 -23 143 -56 16 -13 34 -23 40 -23 7
0 -4 10 -23 23 -34 21 -34 22 -11 25 14 2 35 -5 50 -17 14 -12 50 -35 79 -52
28 -17 52 -35 52 -41 0 -6 6 -8 14 -5 16 6 56 -32 56 -54 0 -8 9 -27 20 -44
11 -16 20 -23 20 -15 -1 8 -7 24 -15 34 -11 14 -12 23 -4 33 6 7 8 24 5 38
l-7 26 33 -18 c18 -9 37 -16 41 -15 5 1 6 -2 2 -8 -3 -5 -3 -10 2 -10 4 0 14
-12 21 -27 23 -51 13 -123 -24 -168 -20 -25 -26 -28 -34 -15 -5 8 -10 35 -11
60 l-2 45 -7 -45 c-4 -25 -8 -40 -9 -35 -1 6 -6 3 -11 -6 -6 -10 -6 -29 0 -50
6 -19 6 -35 2 -37 -4 -1 -7 -34 -6 -72 1 -51 -2 -75 -13 -85 -35 -35 -39 -10
-9 57 29 67 17 65 -24 -4 -35 -58 -45 -68 -77 -74 -59 -11 -177 22 -262 73
-40 24 -75 42 -77 40 -7 -7 72 -65 112 -82 67 -28 158 -55 189 -55 17 0 45 9
63 20 48 29 51 24 8 -15 -43 -39 -75 -44 -128 -20 -18 8 -64 26 -103 41 -72
28 -175 98 -218 150 -35 41 -70 111 -62 124 9 15 -21 128 -57 213 -31 72 -42
146 -23 148 45 3 101 11 104 15 5 5 56 0 161 -17z m-340 -20 c0 -6 8 -8 19 -4
16 5 20 -1 26 -41 4 -26 22 -85 41 -132 19 -46 34 -96 34 -111 -1 -84 -115
-291 -174 -316 -17 -7 -32 -12 -34 -11 -1 2 20 27 48 57 28 30 63 81 79 114
37 76 60 180 44 196 -9 9 -12 7 -11 -7 3 -45 -26 -154 -50 -191 -15 -22 -54
-64 -87 -93 -33 -30 -61 -57 -63 -62 -2 -4 -12 -8 -23 -8 -11 0 -22 -6 -25
-14 -8 -20 -107 -65 -170 -78 -56 -11 -130 0 -161 25 -84 66 -132 154 -119
218 3 18 2 28 -4 24 -5 -3 -12 7 -16 22 -11 51 -12 49 -13 -21 -1 -75 -7 -86
-12 -21 -2 22 -11 51 -21 64 -10 13 -18 38 -18 56 0 27 9 40 47 71 58 47 125
94 136 94 5 0 34 15 65 34 62 38 268 110 372 131 85 17 90 17 90 4z m1840 -19
c-8 -5 -26 -10 -40 -10 -20 0 -22 2 -10 10 8 5 26 10 40 10 20 0 22 -2 10 -10z
m-783 -16 c-3 -3 -12 -4 -19 -1 -8 3 -5 6 6 6 11 1 17 -2 13 -5z m971 -21 c-2
-13 -14 -17 -47 -18 l-45 -1 40 17 c50 22 56 23 52 2z m-4583 -105 c16 -16
-64 20 -96 42 -16 12 -29 23 -29 25 0 6 112 -55 125 -67z m3305 31 c0 -6 -4
-7 -10 -4 -5 3 -10 11 -10 16 0 6 5 7 10 4 6 -3 10 -11 10 -16z m686 -9 c15
-6 50 -25 77 -43 l49 -32 -38 -8 c-29 -6 -49 -3 -79 10 -37 16 -95 64 -95 77
0 10 57 7 86 -4z m-2148 -87 c-33 -64 -42 -97 -44 -151 -3 -71 -15 -86 -94
-114 -82 -30 -309 -62 -271 -39 11 7 9 10 -8 16 -12 3 -19 10 -16 15 3 5 17 5
33 -1 25 -9 25 -8 -8 20 -40 35 -25 40 35 11 64 -31 66 -22 1 11 -32 17 -56
32 -53 35 2 2 27 -1 56 -7 28 -6 57 -9 64 -6 6 2 -13 9 -44 16 -31 7 -65 18
-75 26 -18 14 -18 14 1 15 18 1 17 2 -4 11 -34 13 -24 18 43 21 55 3 92 18 44
18 -13 0 -30 5 -38 10 -29 18 5 28 110 32 88 4 117 9 180 35 81 33 94 37 88
26z m-1843 -13 c8 -13 -15 -13 -35 0 -12 8 -11 10 7 10 12 0 25 -4 28 -10z
m-415 -31 c0 -5 -7 -9 -15 -9 -9 0 -15 9 -15 21 0 18 2 19 15 9 8 -7 15 -16
15 -21z m4550 21 c0 -5 -4 -10 -9 -10 -6 0 -13 5 -16 10 -3 6 1 10 9 10 9 0
16 -4 16 -10z m-4250 -10 c0 -5 -2 -10 -4 -10 -3 0 -8 5 -11 10 -3 6 -1 10 4
10 6 0 11 -4 11 -10z m-568 -32 c-7 -7 -12 -8 -12 -2 0 14 12 26 19 19 2 -3
-1 -11 -7 -17z m658 -5 c0 -3 -6 -3 -14 0 -25 10 -28 -6 -4 -20 l23 -12 -22
-1 c-13 0 -23 -5 -23 -11 0 -12 -159 -9 -166 3 -8 13 55 38 98 39 24 0 52 4
63 8 19 8 45 4 45 -6z m1469 1 c9 -8 -65 -2 -84 7 -13 6 -4 7 30 3 28 -4 52
-8 54 -10z m386 -51 c-9 -37 -18 -20 -9 19 4 18 9 27 11 20 3 -7 2 -24 -2 -39z
m1545 -148 c7 -8 18 -15 26 -15 20 0 34 -34 34 -82 0 -50 -8 -64 -43 -83 -41
-21 -53 8 -37 86 5 28 6 59 0 78 -9 33 0 40 20 16z m-43 -77 c-3 -8 -6 -5 -6
6 -1 11 2 17 5 13 3 -3 4 -12 1 -19z m-857 -1 c0 -2 -10 -12 -22 -23 l-23 -19
19 23 c18 21 26 27 26 19z m-625 -59 c14 -6 25 -15 25 -21 0 -5 9 -22 20 -37
13 -18 19 -38 15 -52 -24 -106 -24 -110 -4 -92 18 16 19 16 19 1 0 -10 -4 -17
-9 -17 -5 0 -24 -12 -41 -26 -17 -15 -34 -24 -37 -20 -3 3 5 14 18 25 31 26
19 26 -28 1 -28 -15 -33 -20 -18 -21 12 -1 6 -4 -12 -9 -18 -4 -47 -6 -64 -4
-18 2 -38 -1 -46 -7 -18 -15 -16 -4 4 29 l17 27 -34 -30 c-25 -22 -31 -25 -26
-11 5 16 4 17 -9 6 -25 -20 -19 41 9 100 13 28 21 50 16 50 -14 0 -39 -47 -51
-94 -13 -51 -29 -70 -29 -34 0 19 -2 20 -11 8 -7 -11 -8 -4 -3 24 4 22 8 47 8
55 2 24 39 78 70 102 34 27 112 58 148 59 15 0 39 -5 53 -12z m625 -9 c-36
-31 -110 -72 -116 -66 -3 3 8 13 25 22 17 8 31 19 31 24 0 7 64 40 80 40 3 0
-6 -9 -20 -20z m785 1 c-3 -5 -11 -10 -16 -10 -6 0 -7 5 -4 10 3 6 11 10 16
10 6 0 7 -4 4 -10z m-930 -80 c-3 -5 -11 -10 -16 -10 -6 0 -7 5 -4 10 3 6 11
10 16 10 6 0 7 -4 4 -10z m-35 -17 c0 -8 -125 -66 -170 -79 -23 -6 -24 -6 -10
11 14 17 13 17 -10 11 -21 -6 -22 -5 -7 4 13 8 22 8 31 1 9 -8 31 -1 82 24 74
36 84 39 84 28z m-370 -58 c-7 -9 -15 -13 -17 -11 -7 7 7 26 19 26 6 0 6 -6
-2 -15z"/>
<path d="M3825 7710 c3 -5 8 -10 11 -10 2 0 4 5 4 10 0 6 -5 10 -11 10 -5 0
-7 -4 -4 -10z"/>
<path d="M4965 7578 c0 -55 -5 -84 -22 -117 -28 -55 -23 -65 7 -16 30 48 41
100 33 158 -8 70 -18 57 -18 -25z"/>
<path d="M4600 7419 c0 -5 5 -7 10 -4 6 3 10 8 10 11 0 2 -4 4 -10 4 -5 0 -10
-5 -10 -11z"/>
<path d="M4470 7230 c0 -5 -7 -10 -16 -10 -13 0 -14 -3 -5 -13 6 -8 8 -16 5
-19 -3 -3 -1 -9 5 -13 7 -3 11 3 11 16 0 21 0 21 20 -2 l20 -24 -6 30 c-4 17
-9 33 -11 38 -6 10 -23 9 -23 -3z"/>
<path d="M4540 7159 c-20 -6 -16 -7 20 -8 25 -1 72 -12 105 -26 52 -21 57 -22
37 -5 -39 32 -119 51 -162 39z"/>
<path d="M4406 7083 c-4 -4 15 -13 41 -20 62 -16 74 -16 43 1 -34 18 -75 27
-84 19z"/>
<path d="M4361 7044 c-9 -21 -17 -25 -36 -21 -29 5 -28 7 -14 -30 6 -15 12
-65 14 -111 3 -66 9 -95 33 -147 28 -59 84 -124 107 -124 6 0 2 6 -7 13 -10 7
-18 17 -18 22 0 4 5 3 12 -4 7 -7 20 -12 29 -12 20 0 30 -21 19 -39 -6 -10
-14 -9 -39 3 -17 9 -31 14 -31 11 0 -2 18 -14 41 -26 23 -11 38 -16 34 -10 -3
6 -4 11 -2 11 5 0 63 -26 99 -45 17 -9 30 -10 34 -4 4 6 10 6 19 -1 9 -7 15
-8 19 -1 4 6 13 8 21 4 8 -3 15 0 15 6 0 6 8 11 19 11 10 0 24 7 31 15 11 13
8 14 -21 10 -29 -5 -31 -4 -11 4 12 6 22 13 22 17 0 5 -66 -1 -124 -12 -25 -5
-36 3 -29 22 3 8 12 13 20 10 18 -7 93 42 93 62 0 9 7 23 16 33 21 23 14 53
-25 106 -24 33 -38 42 -70 48 -51 8 -53 23 -3 27 l37 3 -39 12 c-49 15 -88 1
-131 -48 -26 -29 -38 -56 -61 -138 -6 -20 -30 3 -65 64 -21 36 -29 63 -29 98
0 41 4 50 28 65 26 16 27 19 15 42 -15 30 -17 60 -3 60 6 0 10 5 10 10 0 19
-17 10 -29 -16z m323 -286 c22 -30 20 -48 -9 -83 -20 -24 -27 -27 -37 -17 -11
11 -10 15 5 23 21 12 22 37 2 63 -20 27 -19 36 4 36 11 0 27 -10 35 -22z
m-124 -103 c23 -25 29 -56 13 -62 -8 -3 -13 5 -13 21 0 19 -6 27 -24 32 -31 8
-39 48 -18 94 l16 35 4 -50 c2 -31 10 -58 22 -70z m17 38 c-3 -3 -11 -2 -17 2
-8 5 -7 11 2 22 12 15 13 14 16 -1 2 -10 1 -20 -1 -23z m-21 -120 c-7 -7 -26
7 -26 19 0 6 6 6 15 -2 9 -7 13 -15 11 -17z"/>
<path d="M4630 6993 c-41 -6 -184 -44 -203 -55 -10 -5 -16 -15 -14 -21 6 -17
52 -9 105 19 59 31 150 33 218 4 50 -22 65 -20 44 5 -24 30 -104 55 -150 48z"/>
<path d="M4201 6795 c-7 -33 -14 -64 -15 -70 -2 -5 3 -21 10 -35 14 -26 42
-100 50 -135 3 -11 -6 0 -20 25 -17 31 -25 39 -25 25 -1 -11 14 -44 32 -74 17
-29 38 -64 45 -76 17 -33 81 -87 93 -79 6 3 6 10 1 17 -85 109 -106 166 -119
330 -3 43 -11 84 -18 91 -6 6 -14 18 -17 26 -3 8 -11 -12 -17 -45z"/>
<path d="M4905 6698 c-18 -88 -37 -127 -70 -147 -23 -13 -33 -27 -32 -40 2
-25 7 -26 33 -5 18 14 18 15 -6 10 -25 -5 -25 -5 1 6 29 12 59 55 59 85 0 10
11 35 25 55 26 39 31 53 15 43 -6 -3 -7 1 -4 9 3 9 2 16 -4 16 -6 0 -13 -15
-17 -32z"/>
<path d="M5077 6273 c2 -48 6 -89 8 -92 3 -2 5 34 5 82 0 47 -4 88 -9 91 -5 3
-7 -32 -4 -81z"/>
<path d="M4606 6103 c10 -40 14 -41 14 -5 0 18 -5 32 -10 32 -6 0 -8 -11 -4
-27z"/>
<path d="M4621 6045 c0 -11 6 -33 14 -50 l14 -30 -6 30 c-3 17 -10 39 -14 50
l-8 20 0 -20z"/>
<path d="M3956 6848 c-12 -38 -12 -66 0 -61 14 5 24 62 12 69 -4 3 -10 -1 -12
-8z"/>
<path d="M4030 6820 c0 -5 5 -10 10 -10 6 0 10 5 10 10 0 6 -4 10 -10 10 -5 0
-10 -4 -10 -10z"/>
<path d="M3865 6650 c-3 -5 -1 -10 4 -10 6 0 11 5 11 10 0 6 -2 10 -4 10 -3 0
-8 -4 -11 -10z"/>
<path d="M3974 6560 c-9 -41 -8 -53 4 -62 14 -12 14 -54 -3 -198 -4 -35 -3
-39 4 -20 5 14 12 42 16 64 3 21 8 36 10 34 2 -2 -1 -35 -7 -73 -8 -49 -8 -70
-1 -72 6 -2 8 -14 6 -26 -4 -16 -3 -19 5 -12 14 13 34 148 26 169 -3 9 -2 16
3 16 5 0 7 15 5 32 -4 28 -6 30 -13 13 -4 -11 -8 -15 -8 -10 -2 27 -30 188
-33 191 -3 2 -9 -19 -14 -46z"/>
<path d="M3955 6230 c-3 -5 -1 -10 4 -10 6 0 11 5 11 10 0 6 -2 10 -4 10 -3 0
-8 -4 -11 -10z"/>
<path d="M3321 5656 c2 -2 15 -9 29 -16 23 -12 24 -12 11 3 -7 10 -20 17 -29
17 -8 0 -13 -2 -11 -4z"/>
<path d="M3442 5604 c10 -10 20 -15 24 -12 3 4 -5 12 -18 18 -22 12 -22 12 -6
-6z"/>
<path d="M3490 5580 c20 -13 33 -13 25 0 -3 6 -14 10 -23 10 -15 0 -15 -2 -2
-10z"/>
<path d="M6825 6200 c-3 -5 -2 -10 4 -10 5 0 13 5 16 10 3 6 2 10 -4 10 -5 0
-13 -4 -16 -10z"/>
<path d="M6872 6165 c0 -16 2 -22 5 -12 2 9 2 23 0 30 -3 6 -5 -1 -5 -18z"/>
<path d="M5723 6083 c-7 -2 -13 -8 -13 -13 0 -10 38 -1 46 11 6 10 -13 11 -33
2z"/>
<path d="M5324 6179 c-63 -18 -129 -122 -141 -217 -7 -62 14 -108 79 -173 82
-82 152 -104 210 -66 96 64 92 242 -8 392 -50 76 -69 85 -140 64z"/>
<path d="M5768 5923 c7 -3 16 -2 19 1 4 3 -2 6 -13 5 -11 0 -14 -3 -6 -6z"/>
<path d="M5200 5786 c0 -17 22 -46 35 -46 8 0 15 -6 15 -14 0 -8 5 -18 11 -22
8 -4 9 1 4 17 -4 13 -12 26 -17 28 -5 1 -18 12 -29 24 -10 11 -19 17 -19 13z"/>
<path d="M5580 5720 c-9 -6 -10 -10 -3 -10 6 0 15 5 18 10 8 12 4 12 -15 0z"/>
<path d="M5630 5695 c-7 -9 -11 -18 -8 -20 3 -3 11 1 18 10 7 9 11 18 8 20 -3
3 -11 -1 -18 -10z"/>
<path d="M5480 5690 c0 -5 -12 -10 -27 -11 -25 0 -25 -1 -8 -8 11 -5 25 -4 32
1 7 5 16 7 21 4 5 -3 9 1 9 9 0 8 -6 15 -14 15 -7 0 -13 -4 -13 -10z"/>
<path d="M1981 6074 c0 -11 3 -14 6 -6 3 7 2 16 -1 19 -3 4 -6 -2 -5 -13z"/>
<path d="M7420 5403 c-46 -75 -48 -83 -16 -54 19 18 26 20 26 10 0 -8 -5 -20
-11 -26 -13 -13 -3 -103 12 -103 11 0 11 0 -2 39 -9 25 -8 38 4 64 14 30 34
127 25 127 -2 0 -19 -26 -38 -57z"/>
<path d="M7196 5099 c16 -20 31 -34 33 -32 3 2 -10 18 -29 36 l-34 32 30 -36z"/>
<path d="M7160 5092 c0 -7 45 -62 106 -131 2 -2 4 0 4 5 0 5 -25 38 -55 72
-30 35 -55 59 -55 54z"/>
<path d="M7127 4809 c8 -16 17 -28 19 -26 7 7 -15 57 -25 57 -5 0 -3 -14 6
-31z"/>
<path d="M7521 4824 c0 -11 3 -14 6 -6 3 7 2 16 -1 19 -3 4 -6 -2 -5 -13z"/>
<path d="M7525 4790 c3 -5 8 -10 11 -10 2 0 4 5 4 10 0 6 -5 10 -11 10 -5 0
-7 -4 -4 -10z"/>
<path d="M7102 4658 c-2 -140 -8 -185 -36 -269 -23 -65 -23 -65 -2 -64 14 1
23 12 29 36 5 19 13 37 18 40 8 4 28 122 29 169 0 11 3 11 12 2 7 -7 18 -12
25 -12 10 0 6 13 -12 44 -14 24 -25 48 -24 52 1 5 -1 17 -6 27 -4 9 -5 28 -3
42 3 13 1 22 -3 19 -5 -3 -9 2 -9 10 0 9 -4 16 -9 16 -4 0 -9 -51 -9 -112z"/>
<path d="M7016 4244 c-4 -20 -5 -38 -2 -41 2 -3 8 11 12 31 3 21 4 39 1 42 -2
3 -8 -11 -11 -32z"/>
<path d="M7098 4158 c5 -5 16 -8 23 -6 8 3 3 7 -10 11 -17 4 -21 3 -13 -5z"/>
<path d="M7403 3678 c-13 -6 -23 -15 -23 -20 0 -5 11 -1 25 8 37 24 35 30 -2
12z"/>
<path d="M7300 3620 c-8 -5 -10 -10 -5 -10 6 0 17 5 25 10 8 5 11 10 5 10 -5
0 -17 -5 -25 -10z"/>
<path d="M1835 5830 c-12 -4 -27 -16 -35 -26 -14 -16 -13 -17 5 -10 32 13 98
29 118 28 9 0 15 3 12 9 -7 11 -72 11 -100 -1z"/>
<path d="M2000 5762 c0 -9 44 -32 58 -32 10 1 -38 40 -49 40 -5 0 -9 -4 -9 -8z"/>
<path d="M1420 5349 c-20 -6 -16 -7 20 -8 25 0 52 4 60 9 18 11 -40 11 -80 -1z"/>
<path d="M1352 5030 c0 -14 2 -19 5 -12 2 6 2 18 0 25 -3 6 -5 1 -5 -13z"/>
<path d="M1427 4803 c-9 -9 -9 -43 1 -43 4 0 8 11 8 25 2 27 1 29 -9 18z"/>
<path d="M1696 4680 c-19 -18 -24 -29 -16 -32 11 -3 10 -14 -3 -53 -16 -45
-16 -80 0 -40 6 18 7 18 14 -1 6 -17 7 -17 12 6 3 14 11 51 18 83 7 31 10 59
8 61 -2 2 -17 -9 -33 -24z"/>
<path d="M1370 4486 c0 -9 5 -16 10 -16 6 0 10 4 10 9 0 6 -4 13 -10 16 -5 3
-10 -1 -10 -9z"/>
<path d="M1380 4194 c0 -8 5 -12 10 -9 6 4 8 11 5 16 -9 14 -15 11 -15 -7z"/>
<path d="M4121 5744 c0 -11 3 -14 6 -6 3 7 2 16 -1 19 -3 4 -6 -2 -5 -13z"/>
<path d="M4115 5710 c-3 -5 -1 -10 4 -10 6 0 11 5 11 10 0 6 -2 10 -4 10 -3 0
-8 -4 -11 -10z"/>
<path d="M4120 5671 c0 -6 5 -13 10 -16 6 -3 10 1 10 9 0 9 -4 16 -10 16 -5 0
-10 -4 -10 -9z"/>
<path d="M4140 5632 c0 -32 115 -191 128 -177 5 5 -44 74 -65 90 -6 6 -23 30
-37 55 -14 25 -26 39 -26 32z"/>
<path d="M4327 5395 c16 -22 33 -32 33 -20 0 9 -34 45 -43 45 -4 0 0 -11 10
-25z"/>
<path d="M4520 5246 c0 -2 8 -10 18 -17 15 -13 16 -12 3 4 -13 16 -21 21 -21
13z"/>
<path d="M4743 5365 c0 -22 2 -30 4 -17 2 12 2 30 0 40 -3 9 -5 -1 -4 -23z"/>
<path d="M5219 5500 c-27 -22 -16 -26 20 -6 13 7 19 16 13 20 -5 3 -21 -3 -33
-14z"/>
<path d="M5840 5313 c0 -4 19 -21 41 -38 36 -27 99 -112 99 -134 0 -5 7 -14
16 -22 13 -11 14 -9 9 17 -11 48 -27 84 -35 79 -12 -8 -32 23 -24 37 4 7 4 10
-1 6 -4 -4 -24 5 -44 21 -47 36 -61 44 -61 34z"/>
<path d="M3558 4843 c-9 -10 -24 -34 -33 -53 -21 -41 -67 -100 -77 -100 -10 0
-77 -74 -72 -79 2 -2 13 4 24 14 11 10 20 16 20 12 0 -18 86 86 106 128 13 28
31 60 40 73 19 26 14 30 -8 5z"/>
<path d="M3145 4830 c-14 -6 -4 -9 34 -9 30 -1 52 1 50 3 -11 9 -66 13 -84 6z"/>
<path d="M3390 4600 c-8 -16 -8 -20 3 -20 8 0 17 9 20 20 3 11 1 20 -4 20 -4
0 -13 -9 -19 -20z"/>
<path d="M3274 4478 l-29 -33 33 29 c17 17 32 31 32 33 0 8 -8 1 -36 -29z"/>
<path d="M3566 4255 c4 -8 10 -15 15 -15 4 0 6 7 3 15 -4 8 -10 15 -15 15 -4
0 -6 -7 -3 -15z"/>
<path d="M3588 4225 c-5 -6 4 -42 23 -90 13 -33 10 6 -4 53 -7 23 -16 40 -19
37z"/>
<path d="M4410 4010 l-25 -8 28 -1 c15 -1 27 4 27 9 0 6 -1 10 -2 9 -2 -1 -14
-5 -28 -9z"/>
<path d="M4832 5077 c-33 -27 -47 -43 -37 -45 13 -3 100 77 92 84 -1 2 -26
-16 -55 -39z"/>
<path d="M6706 4758 c79 -86 110 -162 99 -247 -6 -44 -5 -45 9 -21 16 26 20
115 8 157 -8 25 -119 143 -135 143 -6 0 3 -15 19 -32z"/>
<path d="M6080 4687 c0 -9 4 -18 8 -21 13 -8 52 5 46 15 -3 5 -10 7 -15 3 -5
-3 -16 0 -24 6 -12 10 -15 9 -15 -3z"/>
<path d="M6137 4558 c71 -117 172 -214 245 -236 50 -15 138 -22 138 -12 0 6
-17 10 -38 10 -42 0 -121 36 -166 75 -16 14 -37 25 -46 25 -10 0 -20 7 -24 15
-7 19 14 19 40 0 36 -27 35 -15 -1 17 -27 23 -39 28 -45 19 -5 -9 -10 -10 -14
-2 -4 6 -4 16 -1 22 4 5 0 18 -8 27 -7 9 -17 25 -20 35 -4 9 -11 17 -17 17 -8
0 -8 -7 0 -22 l11 -23 -17 23 c-17 23 -51 32 -37 10z"/>
<path d="M2600 4320 c-8 -5 -12 -12 -9 -15 4 -3 12 1 19 10 14 17 11 19 -10 5z"/>
<path d="M6280 3670 c-13 -8 -12 -10 3 -10 9 0 17 5 17 10 0 12 -1 12 -20 0z"/>
<path d="M5540 3873 c0 -5 14 -17 30 -26 17 -10 30 -16 30 -13 0 2 -13 14 -30
26 -16 12 -30 18 -30 13z"/>
<path d="M4858 3713 c7 -3 16 -2 19 1 4 3 -2 6 -13 5 -11 0 -14 -3 -6 -6z"/>
<path d="M3800 3587 c0 -3 12 -12 26 -22 15 -9 23 -12 20 -6 -7 11 -46 35 -46
28z"/>
<path d="M2850 3935 c0 -2 10 -14 23 -27 12 -13 32 -36 44 -53 12 -16 24 -28
26 -25 6 6 -74 109 -85 109 -5 1 -8 -1 -8 -4z"/>
<path d="M2891 3821 c-1 -27 2 -32 11 -23 8 8 8 17 0 34 -10 22 -11 21 -11
-11z"/>
<path d="M2925 3810 c-3 -5 1 -10 9 -10 9 0 16 5 16 10 0 6 -4 10 -9 10 -6 0
-13 -4 -16 -10z"/>
<path d="M2738 3553 c7 -3 16 -2 19 1 4 3 -2 6 -13 5 -11 0 -14 -3 -6 -6z"/>
<path d="M5135 3690 c3 -5 14 -10 23 -10 15 0 15 2 2 10 -20 13 -33 13 -25 0z"/>
<path d="M5761 3455 c0 -5 9 -28 19 -50 17 -36 19 -38 19 -14 1 15 -8 37 -19
50 -10 13 -19 20 -19 14z"/>
<path d="M5220 3350 c0 -5 16 -27 35 -49 19 -21 35 -45 35 -53 0 -17 25 -41
46 -44 18 -3 18 13 0 23 -8 4 -35 36 -61 71 -47 63 -55 70 -55 52z"/>
<path d="M4363 3355 c-3 -9 -3 -18 -1 -21 3 -3 8 4 11 16 6 23 -1 27 -10 5z"/>
<path d="M4350 2860 c-13 -8 -13 -10 2 -10 9 0 20 5 23 10 8 13 -5 13 -25 0z"/>
<path d="M5159 7113 c-13 -16 -12 -17 4 -4 9 7 17 15 17 17 0 8 -8 3 -21 -13z"/>
<path d="M1223 4009 c5 -102 37 -231 71 -280 20 -29 87 -82 94 -74 4 3 -6 18
-23 31 -56 45 -63 55 -89 127 -16 46 -30 112 -37 182 -6 61 -13 112 -16 115
-3 3 -3 -43 0 -101z"/>
<path d="M2007 3723 c-4 -3 -7 -11 -7 -17 0 -6 5 -5 12 2 6 6 9 14 7 17 -3 3
-9 2 -12 -2z"/>
<path d="M1463 3660 c32 -20 121 -28 221 -19 55 5 104 13 110 19 8 8 -7 9 -54
3 -82 -10 -203 -10 -255 0 -31 6 -36 5 -22 -3z"/>
<path d="M2077 3641 c-23 -8 -57 -60 -50 -77 3 -9 18 -2 50 22 24 19 54 34 66
34 12 0 17 4 12 9 -15 13 -58 20 -78 12z"/>
<path d="M1655 3480 c-18 -8 -17 -9 8 -9 15 -1 27 4 27 9 0 12 -8 12 -35 0z"/>
<path d="M5211 2916 c-19 -43 -41 -113 -41 -129 0 -5 4 -6 9 -3 5 3 0 -11 -10
-31 -31 -61 -30 -62 84 -61 56 0 107 3 113 5 7 3 2 22 -14 54 -17 32 -31 48
-40 44 -10 -3 -12 1 -7 16 8 24 -11 104 -32 134 -15 22 -18 13 -4 -13 4 -9 11
-30 15 -47 7 -29 6 -29 -8 -9 -8 11 -18 33 -21 47 -11 43 -24 41 -44 -7z"/>
<path d="M1460 1945 l0 -645 705 0 705 0 0 400 0 400 -55 0 -55 0 0 245 0 245
-650 0 -650 0 0 -645z m1030 305 l0 -150 -322 2 -323 3 -3 148 -3 147 326 0
325 0 0 -150z m-2 -547 l-3 -208 -320 0 -320 0 -3 208 -2 207 325 0 325 0 -2
-207z"/>
<path d="M3020 1945 l0 -645 720 0 720 0 0 645 0 645 -185 0 -185 0 -2 -547
-3 -548 -340 0 -340 0 -3 548 -2 547 -190 0 -190 0 0 -645z"/>
<path d="M4640 1945 l0 -645 185 0 185 0 2 308 3 307 402 5 401 5 76 87 c42
47 76 89 76 92 0 3 -216 6 -480 6 l-480 0 0 145 0 145 428 0 428 0 77 90 c42
49 77 92 77 95 0 3 -310 5 -690 5 l-690 0 0 -645z"/>
<path d="M6170 1945 l0 -645 185 0 185 0 2 308 3 307 400 5 401 5 77 87 c42
47 77 89 77 92 0 3 -216 6 -480 6 l-480 0 0 145 0 145 428 0 427 0 70 82 c39
45 74 87 78 95 7 11 -111 13 -683 13 l-690 0 0 -645z"/>
</g>
</svg>
