<?xml version="1.0" standalone="no"?>
<!DOCTYPE svg PUBLIC "-//W3C//DTD SVG 20010904//EN"
 "http://www.w3.org/TR/2001/REC-SVG-20010904/DTD/svg10.dtd">
<svg version="1.0" xmlns="http://www.w3.org/2000/svg"
 width="656.000000pt" height="509.000000pt" viewBox="0 0 656.000000 509.000000"
 preserveAspectRatio="xMidYMid meet">

<g transform="translate(0.000000,509.000000) scale(0.100000,-0.100000)"
fill="#000000" stroke="none">
<path d="M2270 5073 c-124 -21 -321 -69 -390 -96 -84 -32 -273 -149 -347 -214
-89 -79 -171 -208 -211 -335 -29 -91 -92 -359 -92 -391 0 -33 -3 -33 -39 -6
-25 19 -33 20 -64 10 -50 -17 -133 -73 -295 -200 -41 -33 -47 -67 -29 -166
l15 -79 -53 -81 c-29 -44 -76 -129 -105 -190 -59 -125 -211 -575 -240 -710
-11 -49 -35 -155 -55 -235 l-37 -145 5 -210 c7 -290 39 -446 116 -560 18 -26
31 -49 29 -50 -2 -2 -61 -5 -133 -8 -94 -3 -138 -9 -160 -21 -16 -9 -37 -16
-45 -16 -8 0 -40 -9 -70 -19 l-55 -18 -3 -143 c-2 -133 -1 -142 15 -136 169
62 208 74 268 83 l49 6 -31 -39 c-42 -53 -90 -144 -118 -223 -21 -59 -37 -132
-90 -416 -10 -54 -15 -144 -15 -272 l0 -193 3181 0 3180 0 -1 108 c-1 59 2
127 6 151 l7 45 14 -45 c21 -64 53 -209 53 -236 0 -14 6 -23 15 -23 13 0 15
78 15 640 l0 640 -40 26 -41 27 -43 -32 -44 -31 -50 31 c-61 38 -119 47 -161
26 -26 -13 -32 -13 -39 -1 -4 7 -23 25 -42 39 -99 73 -259 -18 -286 -162 l-6
-33 -74 0 -74 0 -78 -78 c-44 -44 -95 -103 -115 -133 -20 -30 -47 -67 -60 -83
l-24 -29 -45 70 c-25 38 -65 86 -89 106 -123 99 -166 132 -219 163 -51 30 -58
38 -64 72 -3 22 -11 50 -18 64 -8 14 -12 49 -10 85 4 61 5 63 45 87 68 40 198
177 278 292 40 59 87 120 103 136 27 27 29 28 53 13 28 -19 110 -30 148 -21
15 4 49 29 75 56 27 28 54 50 60 50 23 0 91 52 101 78 15 37 3 145 -21 187
l-19 34 35 39 c23 27 49 44 79 52 24 7 65 23 92 35 26 13 52 21 57 18 5 -4 6
-1 2 5 -3 6 2 13 13 17 26 8 34 30 31 98 -1 48 1 57 16 57 35 0 144 80 144
106 0 6 6 14 13 17 33 13 135 99 140 119 7 23 -19 88 -35 88 -5 0 5 20 21 44
41 60 70 135 77 204 3 31 10 67 16 80 13 26 4 73 -43 227 -47 153 -67 187
-119 205 -40 14 -48 23 -114 134 -88 147 -220 288 -314 336 -62 31 -190 60
-269 60 l-41 0 -11 58 c-6 31 -18 98 -25 148 -20 129 -69 218 -150 273 -89 60
-393 164 -536 183 -209 28 -810 34 -915 10 -172 -40 -265 -70 -365 -115 -140
-63 -176 -80 -198 -98 l-24 -18 -81 81 c-139 137 -232 189 -432 241 -171 44
-443 69 -555 50z m-265 -1548 c143 -33 404 -65 580 -71 83 -3 182 -10 222 -16
l72 -11 -51 -37 c-27 -21 -61 -54 -74 -73 -22 -33 -24 -46 -24 -156 0 -66 3
-122 8 -125 4 -2 36 -9 72 -16 36 -6 101 -22 145 -36 44 -13 92 -24 107 -24
15 0 31 -7 36 -17 7 -12 17 -14 41 -10 17 4 31 2 31 -3 0 -10 100 -1 115 11 6
4 57 4 115 -1 88 -7 176 -6 250 2 31 3 60 -2 60 -11 0 -20 -161 -31 -385 -27
-306 6 -391 16 -431 47 -6 5 -18 7 -26 4 -9 -4 -22 0 -29 8 -8 7 -35 20 -61
27 -27 8 -48 18 -48 22 0 4 -5 8 -12 8 -6 0 -50 20 -97 44 -47 24 -117 55
-156 69 -38 14 -92 37 -120 52 -77 42 -245 153 -245 164 0 14 -148 160 -180
176 -35 18 -39 29 -7 22 12 -3 54 -13 92 -22z m2135 -186 c-35 -140 -91 -263
-137 -300 -13 -11 -17 -10 -29 6 -18 24 -29 13 -15 -14 10 -17 6 -23 -21 -45
-36 -27 -110 -56 -145 -56 -27 0 -27 -2 -7 46 16 38 15 117 -1 194 -3 14 -10
48 -16 75 -5 28 -18 67 -28 88 l-18 37 50 0 c65 0 51 17 -18 23 -27 2 33 2
135 0 153 -4 188 -2 204 10 18 13 22 13 37 -7 14 -18 16 -30 9 -57z m-1021 5
c64 -31 88 -65 73 -98 -10 -22 -14 -23 -56 -15 -80 15 -114 34 -124 71 -19 70
21 86 107 42z m1211 -24 c14 0 72 -10 130 -21 323 -65 586 -94 783 -86 l117 5
-21 -29 c-11 -16 -24 -29 -28 -29 -5 0 -44 -70 -87 -155 -43 -85 -84 -155 -91
-155 -7 0 -13 -9 -13 -19 0 -10 -6 -21 -14 -24 -12 -5 -13 -11 -3 -36 13 -35
9 -34 132 -21 50 5 191 17 315 25 124 9 256 22 295 30 76 16 113 4 42 -13 -38
-10 -200 -32 -235 -32 -7 0 -11 -4 -7 -9 10 -17 -98 -22 -545 -24 l-445 -2
-110 29 c-60 15 -157 50 -215 76 -58 26 -123 53 -145 60 -60 20 -115 50 -115
65 0 8 -7 11 -18 8 -10 -2 -26 5 -36 16 -16 18 -17 23 -5 40 68 92 99 144 113
191 10 30 21 64 26 75 5 11 12 34 15 51 l6 30 67 -23 c37 -12 78 -23 92 -23z
m2083 -113 c-5 -83 -92 -241 -123 -222 -6 3 -10 0 -10 -7 -1 -13 -54 -50 -145
-100 -64 -36 -78 -36 -65 -2 16 42 11 126 -14 225 -13 52 -27 102 -31 112 -6
15 1 17 86 18 52 0 135 7 184 14 123 17 120 18 118 -38z m-800 -6 c18 -18 18
-19 -18 -25 -43 -8 -72 11 -61 39 8 21 52 13 79 -14z m-2039 -79 c23 -25 27
-36 21 -59 -10 -42 -24 -53 -63 -53 -50 0 -72 24 -72 76 0 34 5 47 26 63 30
23 43 19 88 -27z m-457 -48 c43 -12 42 -84 -2 -84 -38 0 -68 31 -60 63 7 27
21 32 62 21z m598 -34 c0 -16 -28 -25 -52 -16 -12 5 -13 9 -3 22 16 18 55 15
55 -6z m2169 -46 c12 -16 22 -42 22 -59 -1 -25 -7 -32 -36 -42 -46 -16 -93
-16 -108 -1 -22 22 -14 80 15 110 34 36 76 33 107 -8z m-354 -70 c0 -17 -7
-25 -24 -30 -48 -12 -63 24 -23 56 26 22 47 10 47 -26z m457 -5 c16 -16 5 -39
-19 -39 -14 0 -18 5 -14 15 3 8 1 15 -5 15 -6 0 -7 5 -4 10 8 13 28 13 42 -1z
m-308 -2361 l53 -57 -25 -31 c-35 -41 -65 -143 -81 -275 -12 -97 -14 -103 -15
-50 -2 97 -29 263 -51 312 -11 25 -20 50 -20 55 0 12 73 108 80 105 3 -1 29
-28 59 -59z"/>
</g>
</svg>
